<svg width="100" height="100" viewBox="0 0 100 100" fill="none" xmlns="http://www.w3.org/2000/svg">
<path d="M39.8084 23.0268L38.4681 30.8383C38.3107 31.7431 38.6724 32.6449 39.4118 33.191C39.8363 33.5049 40.3365 33.6644 40.8408 33.6644C41.2114 33.6644 41.5841 33.5777 41.9289 33.4023L49.1225 29.7601L55.9434 33.3475C56.7536 33.777 57.7242 33.7122 58.4725 33.1771C59.2249 32.638 59.5995 31.7371 59.4501 30.8084L58.1108 23.0268L63.7678 17.5112C64.4285 16.8665 64.6607 15.9198 64.3737 15.0409C64.0867 14.161 63.3383 13.5332 62.4246 13.4017L54.6161 12.2667L51.1165 5.17962C50.7019 4.35253 49.8749 3.84033 48.9551 3.84033C48.9521 3.84033 48.9481 3.84033 48.9451 3.84033C48.0244 3.84432 47.2003 4.3615 46.7937 5.19058L43.3041 12.2667L35.4906 13.4007C34.5749 13.5302 33.8285 14.158 33.5425 15.0379C33.2555 15.9198 33.4917 16.8685 34.1544 17.5102L39.8084 23.0268ZM44.5108 15.1127C44.9981 15.0419 45.4196 14.736 45.6368 14.2945L48.9581 7.56024L52.2834 14.2945C52.5006 14.735 52.9221 15.0419 53.4084 15.1117L60.8372 16.1909L55.4601 21.4334C55.1074 21.7772 54.946 22.2724 55.0297 22.7577L56.3032 30.1587L49.829 26.7537C49.4005 26.5285 48.8903 26.5245 48.4579 26.7427L41.607 30.2115L42.8855 22.7558C42.9682 22.2715 42.8078 21.7772 42.456 21.4334L37.08 16.1889L44.5108 15.1127Z" fill="black"/>
<path d="M73.7278 42.9805H59.5737C59.1781 42.9805 58.7975 43.1379 58.5165 43.4179C58.2354 43.698 58.079 44.0786 58.079 44.4752L58.084 60.6762H39.8424L39.8364 44.4742C39.8364 43.6491 39.1668 42.9795 38.3417 42.9795H24.1856C23.3596 42.9795 22.6909 43.6481 22.6909 44.4742V94.0198C22.6909 94.8449 23.3596 95.5146 24.1856 95.5146H38.3427C39.1678 95.5146 39.8374 94.8459 39.8374 94.0208L39.8434 77.8189H58.085L58.08 94.0198C58.08 94.4154 58.2374 94.7961 58.5174 95.0771C58.7975 95.3581 59.1781 95.5146 59.5747 95.5146H73.7288C74.5538 95.5146 75.2235 94.8449 75.2235 94.0198V44.4742C75.2225 43.6491 74.5528 42.9805 73.7278 42.9805ZM72.233 92.5261H61.0684L61.0734 76.3251C61.0734 75.9295 60.916 75.5488 60.636 75.2678C60.356 74.9868 59.9753 74.8304 59.5787 74.8304H38.3486C37.5236 74.8304 36.8539 75.499 36.8539 76.3241L36.8479 92.5261H25.6804V45.97H36.8479L36.8539 62.1719C36.8539 62.997 37.5236 63.6657 38.3486 63.6657H59.5787C59.9743 63.6657 60.355 63.5082 60.636 63.2282C60.917 62.9482 61.0734 62.5675 61.0734 62.1709L61.0684 45.97H72.233V92.5261Z" fill="black"/>
</svg>
