<svg width="65" height="92" viewBox="0 0 65 92" fill="none" xmlns="http://www.w3.org/2000/svg">
<path d="M64.9129 33.0948C65.0255 15.4658 50.7758 1.03165 33.148 0.918053C15.4963 0.813422 1.08521 15.0553 0.971614 32.6832C0.889903 45.4334 8.32266 56.5074 19.1106 61.7061L19.2152 89.5561C19.2172 90.1539 19.5749 90.6921 20.125 90.9252C20.3133 91.006 20.5126 91.0448 20.7099 91.0448C21.0876 91.0448 21.4593 90.9013 21.7433 90.6313L32.7903 80.0794L43.912 90.5575C44.3465 90.9681 44.9862 91.0767 45.5313 90.8405C46.0794 90.6034 46.4331 90.0623 46.4311 89.4644L46.3365 61.9094C57.225 56.8621 64.8312 45.8688 64.9129 33.0948ZM43.4297 85.9966L33.8067 76.9315C33.2287 76.3864 32.3249 76.3894 31.75 76.9385L22.1917 86.0683L22.105 62.9627C25.4293 64.1644 29.0057 64.8361 32.7365 64.86C32.8062 64.86 32.875 64.861 32.9447 64.861C36.5859 64.861 40.0845 64.2402 43.35 63.1121L43.4297 85.9966ZM32.9447 61.8715C32.883 61.8715 32.8182 61.8705 32.7564 61.8705C16.7758 61.7679 3.85842 48.6839 3.96206 32.7022C4.0647 16.7842 17.0459 3.90653 32.9408 3.90653C33.0025 3.90653 33.0673 3.90653 33.1291 3.90653C49.1087 4.01017 62.0261 17.0941 61.9235 33.0749C61.8218 48.9928 48.8396 61.8715 32.9447 61.8715Z" fill="black"/>
<path d="M47.4734 28.2957L38.3855 26.9165L34.3737 18.6516C34.1256 18.1394 33.6074 17.8136 33.0394 17.8096C33.0364 17.8096 33.0334 17.8096 33.0294 17.8096C32.4644 17.8096 31.9472 18.1284 31.6931 18.6347L27.5757 26.8478L18.4748 28.1093C17.9118 28.188 17.4405 28.5787 17.2621 29.1188C17.0827 29.6589 17.2252 30.2538 17.6308 30.6534L24.1687 37.1096L22.5584 46.1558C22.4587 46.7158 22.6849 47.2838 23.1433 47.6216C23.6017 47.9594 24.2115 48.0063 24.7168 47.7452L32.875 43.5221L40.9833 47.8498C41.2046 47.9674 41.4457 48.0262 41.6869 48.0262C41.9938 48.0262 42.2987 47.9315 42.5578 47.7462C43.0202 47.4154 43.2543 46.8503 43.1617 46.2883L41.6669 37.2222L48.2876 30.8497C48.6971 30.4551 48.8476 29.8621 48.6762 29.3201C48.5018 28.779 48.0374 28.3814 47.4734 28.2957ZM39.0273 35.6139C38.6735 35.9547 38.5081 36.448 38.5888 36.9343L39.7188 43.7871L33.5894 40.5146C33.3692 40.3971 33.1271 40.3383 32.8849 40.3383C32.6488 40.3383 32.4136 40.3941 32.1984 40.5057L26.0321 43.6974L27.2488 36.8595C27.3355 36.3752 27.1781 35.88 26.8273 35.5342L21.8858 30.6544L28.7655 29.6997C29.2528 29.632 29.6763 29.329 29.8965 28.8896L33.0085 22.6824L36.0408 28.9294C36.256 29.3719 36.6756 29.6808 37.1618 29.7545L44.0326 30.7969L39.0273 35.6139Z" fill="black"/>
</svg>
