<svg width="95" height="96" viewBox="0 0 95 96" fill="none" xmlns="http://www.w3.org/2000/svg">
<path d="M62.4724 33.7094L31.1919 58.6087C30.5461 59.1229 30.4395 60.0636 30.9527 60.7093C31.2477 61.08 31.6831 61.2733 32.1236 61.2733C32.4494 61.2733 32.7783 61.1677 33.0533 60.9485L64.3339 36.0491C64.9796 35.5349 65.0862 34.5942 64.573 33.9485C64.0598 33.3028 63.1192 33.1952 62.4724 33.7094Z" fill="black"/>
<path d="M35.0005 43.1484C36.3457 44.1309 37.9321 44.6461 39.5673 44.6461C39.9679 44.6461 40.3725 44.6152 40.7761 44.5524C45.0071 43.8937 47.9149 39.9157 47.2582 35.6846C46.5995 31.4525 42.6196 28.5448 38.3905 29.2034C34.1584 29.8611 31.2507 33.8391 31.9094 38.0702C32.2272 40.12 33.3244 41.9247 35.0005 43.1484ZM38.8489 32.157C39.096 32.1182 39.3421 32.0992 39.5853 32.0992C41.8981 32.0992 43.9369 33.7883 44.3036 36.144C44.7082 38.7468 42.9195 41.1942 40.3167 41.5988C39.0532 41.7951 37.7936 41.4882 36.7642 40.7348C35.7339 39.9825 35.0583 38.8724 34.8629 37.6118C34.4584 35.009 36.2461 32.5616 38.8489 32.157Z" fill="black"/>
<path d="M56.0163 49.9531C51.7324 49.9531 48.2467 53.4379 48.2467 57.7208C48.2467 62.0037 51.7324 65.4874 56.0163 65.4874C60.3002 65.4874 63.7849 62.0027 63.7849 57.7208C63.7858 53.4379 60.3002 49.9531 56.0163 49.9531ZM56.0163 62.498C53.3806 62.498 51.2362 60.3545 51.2362 57.7208C51.2362 55.0861 53.3806 52.9426 56.0163 52.9426C58.652 52.9426 60.7954 55.0861 60.7954 57.7208C60.7964 60.3555 58.652 62.498 56.0163 62.498Z" fill="black"/>
<path d="M85.9725 39.0924C83.01 37.6166 79.9478 36.09 79.1127 34.1169C78.2607 32.103 79.4326 28.8983 80.5656 25.7992C82.1042 21.59 83.6965 17.2383 80.8077 14.3515C77.9658 11.5085 73.7506 12.4861 69.673 13.4327C66.7533 14.1103 63.734 14.8109 61.6813 13.9429C59.6823 13.0959 58.0481 10.518 56.4677 8.02475C54.2286 4.49219 51.6915 0.488281 47.3469 0.488281C42.9942 0.488281 40.506 4.58088 38.3107 8.19216C36.7532 10.7541 35.1419 13.4038 33.144 14.2488C31.0942 15.1158 28.04 14.3465 25.0854 13.6041C20.9769 12.5708 16.7289 11.5035 13.883 14.3515C11.0091 17.2234 12.4241 21.6 13.7933 25.8331C14.7948 28.9282 15.8291 32.1289 14.9711 34.1578C14.1361 36.1358 11.2084 37.6485 8.37741 39.1123C4.45925 41.1382 0.0189209 43.4341 0.0189209 47.8147C0.0189209 52.1813 4.28686 54.5689 8.05256 56.6755C10.75 58.1842 13.5392 59.7447 14.3802 61.7317C15.2422 63.7695 14.3394 66.9015 13.4674 69.9298C12.2647 74.1032 11.0211 78.42 13.883 81.2799C16.8326 84.2285 21.5609 81.7742 26.1337 79.3975C29.457 77.6716 33.2247 75.7125 35.1838 76.5426C37.096 77.3517 38.3775 81.3028 39.5085 84.7886C41.1587 89.8776 42.8667 95.1411 47.3478 95.1411C51.834 95.1411 53.4852 89.8727 55.0816 84.7776C56.1777 81.2809 57.4203 77.3168 59.3306 76.5097C61.2896 75.6816 65.1002 77.6457 68.4613 79.3796C73.083 81.7642 77.8611 84.2285 80.8087 81.2809C83.6995 78.3911 82.1161 74.1002 80.5855 69.9498C79.4605 66.8985 78.2966 63.7436 79.1466 61.7317C79.9827 59.7557 83.0349 58.1852 85.9865 56.6665C90.2564 54.4693 94.6718 52.1983 94.6718 47.8147C94.6688 43.4261 90.2474 41.2229 85.9725 39.0924ZM84.6163 54.0089C81.1914 55.7707 77.6499 57.5933 76.3913 60.5688C75.0809 63.6699 76.4531 67.3888 77.7794 70.9851C79.04 74.4031 80.2308 77.6307 78.6932 79.1673C77.2902 80.5714 73.3261 78.5276 69.8305 76.7239C65.6931 74.5894 61.4152 72.3832 58.1647 73.7574C54.9799 75.1036 53.5798 79.5679 52.2276 83.8857C50.9541 87.9504 49.6368 92.1536 47.3469 92.1536C45.038 92.1536 43.6718 87.9414 42.3505 83.8678C40.9574 79.5729 39.5175 75.1315 36.3477 73.7913C35.6442 73.4933 34.8948 73.3628 34.1106 73.3628C31.2666 73.3628 27.9683 75.0767 24.7546 76.7459C21.3068 78.5386 17.3966 80.5694 15.9955 79.1673C14.3812 77.554 15.3319 74.2536 16.3393 70.7589C17.3557 67.2303 18.407 63.5822 17.1325 60.5678C15.8919 57.6371 12.6483 55.8225 9.51141 54.0677C6.16722 52.1973 3.00837 50.4295 3.00837 47.8167C3.00837 45.2557 6.28281 43.5617 9.75057 41.77C13.0529 40.062 16.4689 38.2962 17.7244 35.3237C19.0159 32.2704 17.8071 28.5316 16.6373 24.9153C15.4953 21.3837 14.4161 18.0465 15.9965 16.468C17.6447 14.8178 20.9052 15.638 24.357 16.5059C27.7889 17.3699 31.3404 18.2627 34.3089 17.0051C37.1947 15.7854 39.0611 12.7162 40.8657 9.74769C42.8248 6.52503 44.6753 3.48075 47.3469 3.48075C50.0463 3.48075 51.9386 6.46724 53.9426 9.62811C55.7691 12.509 57.6565 15.4885 60.5174 16.6992C63.466 17.9458 66.9656 17.1337 70.3497 16.3475C73.7825 15.5513 77.0251 14.7979 78.6952 16.468C80.2348 18.0066 79.032 21.294 77.7595 24.7748C76.4282 28.418 75.0501 32.1847 76.3614 35.2838C77.627 38.2743 81.1924 40.052 84.6412 41.77C88.2614 43.5746 91.6814 45.2786 91.6814 47.8167C91.6794 50.3737 88.2485 52.1395 84.6163 54.0089Z" fill="black"/>
</svg>
