<svg width="90" height="90" viewBox="0 0 90 90" fill="none" xmlns="http://www.w3.org/2000/svg">
<path d="M44.7438 0.20459C20.2276 0.20459 0.282227 20.1504 0.282227 44.6671C0.282227 69.1848 20.2276 89.1296 44.7438 89.1296C69.261 89.1296 89.2054 69.1838 89.2054 44.6671C89.2054 20.1504 69.26 0.20459 44.7438 0.20459ZM44.7438 86.1401C21.8758 86.1401 3.27164 67.5356 3.27164 44.6671C3.27164 21.7986 21.8758 3.19407 44.7438 3.19407C67.6119 3.19407 86.216 21.7986 86.216 44.6671C86.216 67.5356 67.6119 86.1401 44.7438 86.1401Z" fill="black"/>
<path d="M63.0262 51.8896H26.4657C25.6396 51.8896 24.9709 52.5593 24.9709 53.3844C24.9709 64.289 33.8405 73.1608 44.7439 73.1608C55.6483 73.1608 64.5209 64.29 64.5209 53.3844C64.5209 52.5593 63.8513 51.8896 63.0262 51.8896ZM44.7439 70.1713C35.9929 70.1713 28.7854 63.438 28.0271 54.8791H61.4648C60.7054 63.438 53.496 70.1713 44.7439 70.1713Z" fill="black"/>
<path d="M33.9362 31.3298C33.9362 27.299 30.6558 24.0186 26.6251 24.0186C22.5944 24.0186 19.314 27.299 19.314 31.3298C19.314 35.3606 22.5944 38.6411 26.6251 38.6411C30.6568 38.6411 33.9362 35.3606 33.9362 31.3298ZM22.3034 31.3298C22.3034 28.9462 24.2415 27.008 26.6251 27.008C29.0086 27.008 30.9468 28.9462 30.9468 31.3298C30.9468 33.7134 29.0076 35.6516 26.6251 35.6516C24.2425 35.6516 22.3034 33.7124 22.3034 31.3298Z" fill="black"/>
<path d="M62.0326 24.0186C58.0008 24.0186 54.7214 27.299 54.7214 31.3298C54.7214 35.3606 58.0008 38.6411 62.0326 38.6411C66.0643 38.6411 69.3447 35.3606 69.3447 31.3298C69.3447 27.299 66.0633 24.0186 62.0326 24.0186ZM62.0326 35.6516C59.649 35.6516 57.7109 33.7134 57.7109 31.3298C57.7109 28.9462 59.649 27.008 62.0326 27.008C64.4161 27.008 66.3553 28.9462 66.3553 31.3298C66.3553 33.7134 64.4151 35.6516 62.0326 35.6516Z" fill="black"/>
</svg>
