<svg width="18" height="15" viewBox="0 0 18 15" fill="none" xmlns="http://www.w3.org/2000/svg">
<path d="M17.4375 5.75C17.4354 7.15833 16.875 8.50838 15.8792 9.50422C14.8834 10.5001 13.5333 11.0604 12.125 11.0625H3.76561L5.91405 13.2109C6.00144 13.298 6.07079 13.4015 6.11811 13.5155C6.16543 13.6294 6.18978 13.7516 6.18978 13.875C6.18978 13.9984 6.16543 14.1206 6.11811 14.2345C6.07079 14.3485 6.00144 14.452 5.91405 14.5391C5.73713 14.7137 5.49856 14.8116 5.24998 14.8116C5.00141 14.8116 4.76283 14.7137 4.58592 14.5391L0.83592 10.7891C0.74852 10.702 0.679173 10.5985 0.631855 10.4845C0.584538 10.3706 0.560181 10.2484 0.560181 10.125C0.560181 10.0016 0.584538 9.87944 0.631855 9.76548C0.679173 9.65153 0.74852 9.54803 0.83592 9.46094L4.58592 5.71094C4.76204 5.53482 5.00091 5.43587 5.24998 5.43587C5.49905 5.43587 5.73792 5.53482 5.91405 5.71094C6.09017 5.88706 6.18911 6.12593 6.18911 6.375C6.18911 6.62407 6.09017 6.86294 5.91405 7.03906L3.76561 9.1875H12.125C13.0367 9.1875 13.911 8.82534 14.5557 8.18068C15.2003 7.53602 15.5625 6.66168 15.5625 5.75C15.5625 4.83832 15.2003 3.96398 14.5557 3.31932C13.911 2.67466 13.0367 2.3125 12.125 2.3125H5.24998C5.00134 2.3125 4.76289 2.21373 4.58707 2.03791C4.41125 1.8621 4.31248 1.62364 4.31248 1.375C4.31248 1.12636 4.41125 0.887903 4.58707 0.712087C4.76289 0.536272 5.00134 0.4375 5.24998 0.4375H12.125C13.5333 0.439567 14.8834 0.999938 15.8792 1.99578C16.875 2.99162 17.4354 4.34167 17.4375 5.75Z" fill="#666666"/>
</svg>
