<svg width="16" height="20" viewBox="0 0 16 20" fill="none" xmlns="http://www.w3.org/2000/svg">
<path d="M5.49999 19.6873C5.35117 19.6843 5.20468 19.6497 5.0703 19.5857C4.88847 19.4914 4.74216 19.3407 4.6534 19.1561C4.56463 18.9715 4.53821 18.7631 4.57811 18.5623L5.67186 13.0935L1.42186 11.4998C1.27667 11.4465 1.14705 11.3579 1.04474 11.242C0.94243 11.126 0.870658 10.9864 0.835925 10.8357C0.801696 10.686 0.804438 10.5303 0.843913 10.3819C0.883388 10.2335 0.958409 10.097 1.06249 9.98413L9.81249 0.609133C9.95322 0.46121 10.1377 0.362391 10.3389 0.327229C10.54 0.292067 10.7471 0.322421 10.9297 0.41382C11.11 0.507674 11.2553 0.657169 11.344 0.840122C11.4326 1.02308 11.4599 1.22974 11.4219 1.42945L10.3281 6.8982L14.5781 8.49195C14.7233 8.54517 14.8529 8.63377 14.9552 8.74973C15.0575 8.86568 15.1293 9.00532 15.164 9.15601C15.1983 9.30691 15.1955 9.46384 15.1561 9.61346C15.1166 9.76308 15.0416 9.90096 14.9375 10.0154L6.18749 19.3904C6.09887 19.4837 5.99227 19.5581 5.87411 19.6092C5.75596 19.6602 5.62869 19.6868 5.49999 19.6873ZM3.39061 10.2341L7.07811 11.6169C7.28543 11.697 7.45825 11.8471 7.56667 12.0411C7.67509 12.2351 7.7123 12.4609 7.67186 12.6794L7.0703 15.6951L12.6094 9.75757L8.92186 8.37476C8.71361 8.29595 8.53986 8.14615 8.43124 7.95178C8.32262 7.7574 8.2861 7.53092 8.32811 7.31226L8.92967 4.29663L3.39061 10.2341Z" fill="#666666"/>
</svg>
