<svg width="30" height="38" viewBox="0 0 30 38" fill="none" xmlns="http://www.w3.org/2000/svg">
<path d="M19.7501 12.125C20.8626 12.125 21.9501 11.7951 22.8752 11.177C23.8002 10.5589 24.5212 9.68043 24.9469 8.6526C25.3726 7.62476 25.484 6.49376 25.267 5.40262C25.05 4.31148 24.5142 3.3092 23.7276 2.52253C22.9409 1.73586 21.9386 1.20013 20.8475 0.983085C19.7563 0.766043 18.6253 0.877437 17.5975 1.30318C16.5697 1.72892 15.6911 2.44989 15.0731 3.37492C14.455 4.29995 14.1251 5.38748 14.1251 6.5C14.1251 7.99185 14.7177 9.42259 15.7726 10.4775C16.8275 11.5324 18.2582 12.125 19.7501 12.125ZM19.7501 4.625C20.1209 4.625 20.4834 4.73497 20.7918 4.941C21.1001 5.14703 21.3404 5.43986 21.4824 5.78247C21.6243 6.12508 21.6614 6.50208 21.5891 6.8658C21.5167 7.22951 21.3381 7.5636 21.0759 7.82583C20.8137 8.08805 20.4796 8.26663 20.1159 8.33897C19.7522 8.41132 19.3752 8.37419 19.0325 8.23228C18.6899 8.09036 18.3971 7.85004 18.1911 7.5417C17.985 7.23335 17.8751 6.87084 17.8751 6.5C17.8751 6.00272 18.0726 5.52581 18.4243 5.17418C18.7759 4.82255 19.2528 4.625 19.7501 4.625ZM29.7501 22.125C29.7501 22.6223 29.5525 23.0992 29.2009 23.4508C28.8493 23.8025 28.3724 24 27.8751 24C22.0626 24 19.2032 20.9219 16.9063 18.4531L16.6876 18.2344L15.4376 21.1094L20.8438 24.9688C21.0849 25.145 21.2812 25.3753 21.4169 25.6413C21.5526 25.9073 21.6239 26.2014 21.6251 26.5V35.25C21.6251 35.7473 21.4275 36.2242 21.0759 36.5758C20.7243 36.9275 20.2474 37.125 19.7501 37.125C19.2528 37.125 18.7759 36.9275 18.4243 36.5758C18.0726 36.2242 17.8751 35.7473 17.8751 35.25V27.4688L13.9063 24.6406L8.96883 36C8.82125 36.3332 8.5805 36.6167 8.27557 36.8163C7.97064 37.0159 7.61452 37.1231 7.25008 37.125C6.9919 37.126 6.73638 37.0728 6.50008 36.9688C6.27435 36.8703 6.07022 36.7283 5.89937 36.551C5.72851 36.3736 5.59427 36.1643 5.50431 35.9351C5.41435 35.7058 5.37043 35.4611 5.37507 35.2148C5.3797 34.9686 5.4328 34.7257 5.53133 34.5L11.3907 21H11.4063L13.547 16.0625C12.2813 15.9063 10.7032 16.375 8.81258 17.4531C7.14315 18.4335 5.59589 19.6083 4.2032 20.9531C3.85096 21.3054 3.37322 21.5033 2.87508 21.5033C2.37694 21.5033 1.89919 21.3054 1.54695 20.9531C1.19471 20.6009 0.996826 20.1231 0.996826 19.625C0.996826 19.1269 1.19471 18.6491 1.54695 18.2969C3.17953 16.7285 4.98849 15.3547 6.93758 14.2031C12.5782 10.9688 16.0157 12.375 17.8907 14.1094C18.5157 14.6875 19.0938 15.2969 19.6407 15.9063C21.7345 18.1406 23.6876 20.25 27.8751 20.25C28.3724 20.25 28.8493 20.4475 29.2009 20.7992C29.5525 21.1508 29.7501 21.6277 29.7501 22.125Z" fill="#666666"/>
</svg>
