<svg width="34" height="34" viewBox="0 0 34 34" fill="none" xmlns="http://www.w3.org/2000/svg">
<path d="M17 0.125C13.6624 0.125 10.3998 1.1147 7.62476 2.96895C4.84968 4.8232 2.68677 7.45871 1.40954 10.5422C0.132312 13.6257 -0.20187 17.0187 0.449256 20.2921C1.10038 23.5656 2.70757 26.5724 5.06758 28.9324C7.42759 31.2924 10.4344 32.8996 13.7079 33.5508C16.9813 34.2019 20.3743 33.8677 23.4578 32.5905C26.5413 31.3132 29.1768 29.1503 31.0311 26.3752C32.8853 23.6002 33.875 20.3376 33.875 17C33.8709 12.5257 32.0916 8.23592 28.9279 5.07214C25.7641 1.90836 21.4743 0.129137 17 0.125ZM17 30.125C14.4041 30.125 11.8665 29.3552 9.70815 27.913C7.54975 26.4708 5.86749 24.421 4.87409 22.0227C3.88069 19.6244 3.62077 16.9854 4.1272 14.4394C4.63363 11.8934 5.88367 9.55479 7.71923 7.71922C9.5548 5.88366 11.8934 4.63362 14.4394 4.12719C16.9854 3.62076 19.6244 3.88068 22.0227 4.87408C24.421 5.86748 26.4709 7.54975 27.913 9.70814C29.3552 11.8665 30.125 14.4041 30.125 17C30.1209 20.4797 28.7367 23.8157 26.2762 26.2762C23.8157 28.7367 20.4797 30.1209 17 30.125ZM27.625 17C27.625 17.4973 27.4275 17.9742 27.0758 18.3258C26.7242 18.6775 26.2473 18.875 25.75 18.875H17C16.5027 18.875 16.0258 18.6775 15.6742 18.3258C15.3226 17.9742 15.125 17.4973 15.125 17V8.25C15.125 7.75272 15.3226 7.27581 15.6742 6.92417C16.0258 6.57254 16.5027 6.375 17 6.375C17.4973 6.375 17.9742 6.57254 18.3258 6.92417C18.6775 7.27581 18.875 7.75272 18.875 8.25V15.125H25.75C26.2473 15.125 26.7242 15.3225 27.0758 15.6742C27.4275 16.0258 27.625 16.5027 27.625 17Z" fill="#666666"/>
</svg>
