<svg width="40" height="30" viewBox="0 0 40 30" fill="none" xmlns="http://www.w3.org/2000/svg">
<path d="M25.6719 21.6876C26.8288 20.5596 27.6232 19.1124 27.9534 17.5308C28.2837 15.9491 28.1349 14.3049 27.5261 12.8083C26.9173 11.3116 25.876 10.0305 24.5354 9.12854C23.1948 8.22662 21.6158 7.74488 20 7.74488C18.3843 7.74488 16.8052 8.22662 15.4646 9.12854C14.124 10.0305 13.0827 11.3116 12.4739 12.8083C11.8651 14.3049 11.7163 15.9491 12.0466 17.5308C12.3769 19.1124 13.1712 20.5596 14.3281 21.6876C12.1483 22.8627 10.3935 24.694 9.31251 26.9219C9.09288 27.3695 9.06003 27.886 9.22119 28.3577C9.38236 28.8295 9.72433 29.2179 10.1719 29.4376C10.6194 29.6572 11.1359 29.69 11.6077 29.5289C12.0794 29.3677 12.4679 29.0257 12.6875 28.5782C13.3528 27.2045 14.3916 26.046 15.6849 25.2353C16.9782 24.4247 18.4737 23.9948 20 23.9948C21.5263 23.9948 23.0218 24.4247 24.3151 25.2353C25.6084 26.046 26.6472 27.2045 27.3125 28.5782C27.4676 28.8932 27.7079 29.1583 28.0063 29.3434C28.3046 29.5285 28.6489 29.6261 29 29.6251C29.2813 29.6228 29.5587 29.5588 29.8125 29.4376C30.0359 29.3307 30.2359 29.1806 30.401 28.996C30.5661 28.8115 30.6929 28.596 30.7743 28.3621C30.8557 28.1282 30.8899 27.8805 30.875 27.6333C30.8601 27.3862 30.7964 27.1444 30.6875 26.9219C29.6065 24.694 27.8517 22.8627 25.6719 21.6876ZM15.625 15.8751C15.625 15.0098 15.8816 14.1639 16.3623 13.4444C16.8431 12.725 17.5263 12.1642 18.3258 11.8331C19.1252 11.502 20.0049 11.4153 20.8535 11.5841C21.7022 11.7529 22.4817 12.1696 23.0936 12.7815C23.7055 13.3933 24.1221 14.1729 24.2909 15.0215C24.4598 15.8702 24.3731 16.7499 24.042 17.5493C23.7108 18.3487 23.1501 19.032 22.4306 19.5127C21.7112 19.9935 20.8653 20.2501 20 20.2501C18.841 20.2459 17.7305 19.7837 16.911 18.9641C16.0914 18.1445 15.6291 17.0341 15.625 15.8751ZM39.25 17.3751C38.8522 17.6734 38.3521 17.8015 37.8598 17.7312C37.3676 17.6609 36.9234 17.3979 36.625 17.0001C36.0377 16.2091 35.2985 15.5433 34.4507 15.0416C33.6029 14.5399 32.6635 14.2124 31.6875 14.0782C31.3172 14.0228 30.9719 13.8577 30.6962 13.6043C30.4205 13.3509 30.227 13.0207 30.1406 12.6563C30.1077 12.586 30.0815 12.5128 30.0625 12.4376C29.9992 12.1995 29.9838 11.9512 30.0172 11.7072C30.0507 11.4631 30.1323 11.2282 30.2573 11.0159C30.3823 10.8037 30.5483 10.6184 30.7455 10.4708C30.9428 10.3233 31.1674 10.2163 31.4063 10.1563C31.9138 10.0233 32.3798 9.76468 32.7611 9.40421C33.1424 9.04374 33.4268 8.59306 33.588 8.09373C33.7493 7.59441 33.7822 7.06252 33.6838 6.54712C33.5854 6.03171 33.3587 5.54939 33.0248 5.14464C32.6909 4.73989 32.2604 4.42573 31.7731 4.23115C31.2858 4.03657 30.7574 3.96782 30.2365 4.03126C29.7156 4.09469 29.2191 4.28826 28.7927 4.59411C28.3664 4.89996 28.0239 5.30825 27.7969 5.78131C27.7038 6.02224 27.562 6.24134 27.3803 6.42488C27.1985 6.60842 26.9809 6.75244 26.7409 6.84791C26.5009 6.94337 26.2438 6.98823 25.9856 6.97966C25.7275 6.97109 25.4739 6.90929 25.2408 6.79812C25.0077 6.68695 24.8 6.52882 24.6309 6.33364C24.4617 6.13845 24.3347 5.91043 24.2578 5.66386C24.181 5.41729 24.1558 5.1575 24.1841 4.90077C24.2123 4.64404 24.2933 4.39591 24.4219 4.17194C24.8403 3.28834 25.4423 2.50415 26.1879 1.87168C26.9334 1.23922 27.8052 0.773031 28.7452 0.504227C29.6852 0.235424 30.6716 0.170187 31.6388 0.312872C32.606 0.455558 33.5316 0.802882 34.354 1.33167C35.1763 1.86045 35.8763 2.55854 36.4074 3.37934C36.9386 4.20014 37.2885 5.12478 37.434 6.09156C37.5794 7.05833 37.517 8.04501 37.2508 8.98574C36.9847 9.92647 36.521 10.7996 35.8906 11.5469C37.3592 12.3221 38.6353 13.4167 39.625 14.7501C39.7727 14.947 39.8802 15.1712 39.9413 15.4097C40.0025 15.6482 40.016 15.8965 39.9812 16.1402C39.9463 16.384 39.8638 16.6185 39.7384 16.8304C39.6129 17.0422 39.447 17.2273 39.25 17.3751ZM8.31251 14.0782C7.33654 14.2124 6.39715 14.5399 5.54934 15.0416C4.70152 15.5433 3.96232 16.2091 3.37501 17.0001C3.19871 17.2312 2.9719 17.4189 2.71192 17.5489C2.45193 17.6789 2.16567 17.7477 1.87501 17.7501C1.46968 17.7478 1.0756 17.6165 0.750008 17.3751C0.352183 17.0767 0.0891785 16.6325 0.0188524 16.1402C-0.0514738 15.6479 0.0766391 15.1479 0.375008 14.7501C1.36476 13.4167 2.64084 12.3221 4.10938 11.5469C3.47904 10.7996 3.01533 9.92647 2.7492 8.98574C2.48306 8.04501 2.42063 7.05833 2.56606 6.09156C2.71149 5.12478 3.06145 4.20014 3.59257 3.37934C4.12369 2.55854 4.82376 1.86045 5.64606 1.33167C6.46837 0.802882 7.394 0.455558 8.36119 0.312872C9.32837 0.170187 10.3149 0.235424 11.2548 0.504227C12.1948 0.773031 13.0666 1.23922 13.8122 1.87168C14.5577 2.50415 15.1597 3.28834 15.5781 4.17194C15.7068 4.39591 15.7877 4.64404 15.8159 4.90077C15.8442 5.1575 15.8191 5.41729 15.7422 5.66386C15.6653 5.91043 15.5383 6.13845 15.3691 6.33364C15.2 6.52882 14.9923 6.68695 14.7592 6.79812C14.5261 6.90929 14.2725 6.97109 14.0144 6.97966C13.7562 6.98823 13.4991 6.94337 13.2591 6.84791C13.0191 6.75244 12.8015 6.60842 12.6197 6.42488C12.438 6.24134 12.2962 6.02224 12.2031 5.78131C11.9761 5.30825 11.6336 4.89996 11.2073 4.59411C10.7809 4.28826 10.2844 4.09469 9.76353 4.03126C9.24266 3.96782 8.7142 4.03657 8.2269 4.23115C7.73959 4.42573 7.30913 4.73989 6.97521 5.14464C6.64129 5.54939 6.41466 6.03171 6.31623 6.54712C6.21779 7.06252 6.25073 7.59441 6.41199 8.09373C6.57325 8.59306 6.85764 9.04374 7.23894 9.40421C7.62024 9.76468 8.08617 10.0233 8.59376 10.1563C8.83266 10.2163 9.05726 10.3233 9.25449 10.4708C9.45173 10.6184 9.61768 10.8037 9.7427 11.0159C9.86772 11.2282 9.94933 11.4631 9.98277 11.7072C10.0162 11.9512 10.0008 12.1995 9.93751 12.4376C9.91849 12.5128 9.89233 12.586 9.85938 12.6563C9.77301 13.0207 9.57951 13.3509 9.30381 13.6043C9.02812 13.8577 8.68285 14.0228 8.31251 14.0782Z" fill="#666666"/>
</svg>
