<svg width="44" height="44" viewBox="0 0 44 44" fill="none" xmlns="http://www.w3.org/2000/svg">
<path d="M24.75 16.5H19.25V11H16.5V16.5H11V19.25H16.5V24.75H19.25V19.25H24.75V16.5Z" fill="black"/>
<path d="M29.491 27.5C31.7595 24.8061 33.0024 21.3968 33 17.875C33 14.8836 32.1129 11.9593 30.451 9.47201C28.789 6.98471 26.4268 5.0461 23.6631 3.90133C20.8994 2.75655 17.8582 2.45703 14.9243 3.04063C11.9903 3.62423 9.29529 5.06475 7.18002 7.18002C5.06475 9.29529 3.62423 11.9903 3.04063 14.9243C2.45703 17.8582 2.75655 20.8994 3.90133 23.6631C5.0461 26.4268 6.98471 28.789 9.47201 30.451C11.9593 32.1129 14.8836 33 17.875 33C21.3968 33.0024 24.8061 31.7595 27.5 29.491L37.9308 39.875L39.875 37.9308L29.491 27.5ZM17.875 30.25C15.4275 30.25 13.0349 29.5242 10.9998 28.1644C8.96477 26.8047 7.37863 24.872 6.442 22.6107C5.50536 20.3495 5.2603 17.8613 5.73779 15.4608C6.21528 13.0602 7.39389 10.8552 9.12456 9.12456C10.8552 7.39389 13.0602 6.21528 15.4608 5.73779C17.8613 5.2603 20.3495 5.50536 22.6107 6.442C24.872 7.37863 26.8047 8.96477 28.1644 10.9998C29.5242 13.0349 30.25 15.4275 30.25 17.875C30.2464 21.1559 28.9414 24.3015 26.6214 26.6214C24.3015 28.9414 21.1559 30.2464 17.875 30.25Z" fill="black"/>
</svg>
