<svg width="120" height="120" viewBox="0 0 120 120" fill="none" xmlns="http://www.w3.org/2000/svg">
<path d="M83.4905 69.9084C83.649 69.6259 84.5296 69.2006 84.1845 68.6763C84.1117 68.5642 84.3296 68.246 84.4491 68.0425C84.7814 67.475 84.8089 67.2363 85.1252 66.7202C85.6237 67.3917 86.1452 68.0913 86.7236 68.8705C86.6616 68.9238 86.4852 69.0766 86.3082 69.2288C86.5395 69.4123 86.7804 69.5877 86.9984 69.7863C87.3281 70.0844 86.3165 70.2848 86.9338 70.6463C87.2502 70.8298 87.5198 71.0997 87.7851 71.3566C87.8522 71.4223 87.8132 71.5908 87.8241 71.7105C87.8733 72.1884 87.8266 72.6237 87.4291 72.9826C87.1907 73.1987 86.9102 73.4555 86.8303 73.7461C86.3005 75.6215 84.4555 76.6036 83.6643 78.2935C82.2142 79.2475 81.5522 81.0978 79.7282 81.6371C79.6426 81.6621 79.6011 81.8356 79.5391 81.9396C79.0642 82.7313 78.2647 83.2349 77.4889 83.5631C76.7495 83.8738 76.4536 84.8278 75.5116 84.7545C75.4777 84.7513 75.3844 84.9706 75.387 85.0827C75.4081 85.6477 75.0291 85.6959 74.6163 85.6477C73.8768 85.5556 73.6723 86.2477 73.1943 86.5177C72.7093 86.7927 72.0919 86.8384 71.5417 87.0113C71.4381 87.0444 71.3864 87.2173 71.2822 87.2862C71.0566 87.4334 70.8259 87.6451 70.5792 87.6702C69.5957 87.7723 68.6147 87.5612 67.6471 88.1462C67.1205 88.4644 66.2201 88.0391 65.68 88.693C64.2063 88.8509 62.8004 89.4466 61.264 89.2355C60.5451 89.1359 59.8005 89.2229 59.0662 89.2254C59.0586 89.1415 59.0509 89.057 59.0426 88.973H59.04C59.1442 88.8972 59.2452 88.8183 59.3494 88.7369L59.7878 87.9095C60.5917 87.4998 60.5866 86.8891 60.2338 86.192C60.3533 86.0316 60.4728 85.8713 60.5917 85.7109C60.7374 85.0902 60.8096 84.4745 60.7112 83.8281C60.6671 83.5456 60.7815 83.1792 60.9554 82.9449C61.1988 82.6142 61.7465 82.5735 61.7127 81.9421C61.6948 81.5913 62.5192 81.3596 62.5607 80.9142C62.615 80.311 62.6131 79.6421 62.9454 79.0646C63.1014 79.0671 63.2541 79.0721 63.41 79.0746C63.4906 79.7592 63.651 80.2021 64.191 80.576C64.1054 80.8021 64.292 81.0264 64.191 81.2957C64.3597 81.426 64.6141 81.6189 64.8678 81.8124C64.6786 81.9527 64.4894 82.0899 64.2996 82.2296C64.8844 82.725 65.4321 82.7489 65.9421 82.301C65.7216 82.1507 65.5612 81.7235 65.3407 81.5757C65.5069 81.4842 65.6181 81.6703 65.7842 81.5757L65.7734 81.5938C65.9114 81.5556 66.0462 81.5174 66.1836 81.4767C66.1293 81.436 66.0744 81.3928 66.0226 81.3521C66.0277 81.0921 66.0303 80.8353 66.036 80.576C66.059 80.2653 67.0841 80.311 66.3524 79.721C66.3134 79.6903 66.36 79.4893 66.4252 79.4178C66.6508 79.1686 67.3225 79.0389 66.6144 78.5885C66.7154 78.4614 66.8246 78.3367 66.9154 78.2014C67.2394 77.7204 67.5589 77.2375 67.8804 76.7539C67.9584 76.7489 68.0389 76.7489 68.1168 76.7489C68.3603 77.1429 68.6045 77.5375 68.8486 77.9321C69.0199 78.2065 69.287 78.4232 69.0614 78.8378C68.9911 78.965 69.3126 79.2957 69.4557 79.5325C69.3829 79.9089 69.2895 80.291 69.8423 80.3975L70.1172 80.5096C70.0654 80.4357 70.0111 80.3618 69.9587 80.291C70.2341 80.0517 70.5089 79.81 70.7844 79.5707C70.693 79.4742 70.6022 79.3796 70.5089 79.2832C70.7581 78.8911 70.7633 78.5961 70.6438 77.8808C70.5377 77.2425 70.9058 76.7082 71.3915 76.4458C71.9079 76.1683 71.4822 75.7004 71.8037 75.4154C72.0478 75.1987 72.437 74.9469 72.097 74.4815C72.035 74.3976 72.2089 74.1201 72.3073 73.9497C72.6236 73.4073 72.9559 72.8755 73.2799 72.3387L73.5503 72.4126C73.6589 73.3058 74.3261 73.8376 74.9722 74.4201C74.7901 74.5472 74.6552 74.6418 74.5102 74.7408C74.5153 74.789 74.5102 74.8604 74.5332 74.9193C74.6603 75.2118 74.3197 74.9876 74.824 75.8225L74.9722 76.2791C75.2911 76.6913 76.1187 77.3596 75.4209 77.6365C75.6778 77.7718 75.9136 77.9522 76.1839 78.0261C76.5392 78.1225 76.7258 77.9215 76.7258 77.5657C76.7546 77.4893 76.7859 77.4104 76.814 77.3339C76.7674 77.3922 76.7207 77.4511 76.6741 77.5093L76.2018 76.5297C76.7284 76.385 76.9649 76.0311 76.9674 75.5068C77.0505 75.3315 77.1361 75.158 77.2192 74.9826L77.2032 74.9876C77.3023 74.9776 77.4007 74.9675 77.4991 74.96C77.4787 74.8786 77.4576 74.7972 77.4371 74.7151C77.4812 74.0769 77.6755 73.4787 77.9375 72.8987C78.0181 72.8323 78.0986 72.769 78.1791 72.7026C78.2647 72.6387 78.3504 72.578 78.436 72.5141C78.3242 72.4815 78.213 72.4458 78.1011 72.4126C78.0807 72.3387 78.8303 72.1138 78.0417 72.1959C78.2283 71.7562 78.9524 71.5069 78.514 70.8298C78.4648 70.7534 78.7217 70.4941 78.8303 70.3155C79.0693 69.9184 79.3026 69.5219 79.5391 69.1248C79.7071 69.1248 79.8733 69.1248 80.042 69.1273C80.2184 69.7405 80.5066 70.2748 81.1112 70.588C81.2307 70.6895 81.3496 70.7916 81.4691 70.893C81.2748 71.0308 81.0799 71.168 80.823 71.349C81.0984 71.4912 81.3393 71.6134 81.5809 71.738C81.6506 71.7919 81.7209 71.8451 81.7937 71.8959C81.6014 72.1094 81.4096 72.3212 81.1502 72.6112C81.625 72.8398 81.9931 73.0515 82.3906 73.1786C82.4654 73.2037 82.7875 72.8705 82.7638 72.7458C82.6501 72.1276 82.5747 71.4962 82.6705 71.163C82.6942 71.1223 82.7095 71.0791 82.7172 71.0334C83.2361 70.8373 83.8592 70.7101 83.493 69.9184L83.4905 69.9084ZM75.8228 78.7871C75.9372 78.6493 76.0305 78.5378 76.1238 78.4257C76.0331 78.3718 75.9347 78.2678 75.8541 78.2804C75.7398 78.2985 75.6413 78.4025 75.5352 78.4714C75.6158 78.5579 75.6931 78.6468 75.8228 78.7871ZM82.0372 74.0411C81.9676 74.0286 81.8947 74.013 81.8244 74.0004C81.8193 74.0462 81.8167 74.0919 81.8116 74.1376C81.8845 74.1301 81.9573 74.1226 82.0295 74.11C82.0347 74.11 82.0347 74.0637 82.0372 74.0411Z" fill="#064E07"/>
<path d="M52.9807 80.4174C53.3135 80.0662 53.6469 79.7131 53.9803 79.3619C54.2148 79.3619 54.451 79.367 54.6855 79.3695C55.4514 80.1052 55.306 81.249 55.8531 82.0857C56.1508 82.538 56.5357 82.9666 56.688 83.4681C56.8227 83.9127 56.5939 84.4661 56.7086 84.9234C56.7951 85.2746 56.7086 85.8075 57.2809 85.9764C57.3956 86.0097 57.3799 86.5144 57.4238 86.7997C57.0214 86.9193 56.6905 87.0601 57.2583 87.4394C57.5046 87.7567 57.7516 88.0733 57.9985 88.3906C57.9327 88.4373 57.8663 88.4815 57.8023 88.5282C57.8763 88.5985 57.9528 88.6689 58.0267 88.7412L58.0217 88.7361C58.0317 88.8167 58.0518 88.8947 58.08 88.9677C56.7795 89.5082 55.4363 89.1858 54.1101 89.1756C53.5429 88.5467 52.792 88.7777 52.0975 88.7131C51.6902 88.674 51.2884 88.557 50.891 88.4552C49.9597 88.2192 49.163 87.4835 48.1176 87.6703C47.7052 87.1432 47.2928 86.6155 46.7531 85.9297C46.6591 86.3346 46.6234 86.4907 46.5877 86.6443C46.3332 86.6417 46.0787 86.6391 45.8243 86.6366C44.9901 85.5344 43.9998 84.7757 42.5294 85.0847C42.5012 84.9599 42.5012 84.7418 42.4398 84.7207C40.9794 84.2351 39.9866 82.9877 38.666 82.2783C38.5312 82.2053 38.5162 81.9066 38.4448 81.7115C38.3965 81.4748 38.4216 81.1166 38.2818 81.0276C37.8619 80.7654 37.3786 80.6067 36.918 80.4065C36.7957 79.8378 36.4573 79.4917 35.9001 79.367C35.7628 78.6006 35.1267 77.9507 34.3758 77.808C34.3526 77.6833 34.3733 77.5118 34.2993 77.4415C33.1718 76.3757 31.9784 75.3727 31.4977 73.7772C31.4112 73.4913 31.1135 73.252 30.8716 73.0441C30.4974 72.7243 30.2254 72.3814 30.2937 71.8485C30.4341 71.8121 30.5764 71.7788 30.8816 71.7008C30.5739 71.6202 30.4341 71.5811 30.2912 71.5447C30.2837 71.4404 30.2737 71.3393 30.2661 71.2351C30.2661 71.0662 30.1997 70.848 30.2787 70.7361C30.5256 70.383 31.6149 70.4738 30.8384 69.5801C30.8233 69.5616 31.0396 69.3511 31.1311 69.2161C31.2658 69.0185 31.8794 68.8784 31.2251 68.5509C31.2075 68.54 31.274 68.2623 31.3548 68.153C31.8205 67.5139 32.3044 66.8876 32.7926 66.2402C32.8058 66.2716 32.8384 66.4117 32.9098 66.5287C33.2583 67.116 33.6149 67.6956 33.9684 68.2777C33.4645 68.9769 34.5131 69.3358 34.3326 69.98C34.3044 70.0791 34.4874 70.2422 34.582 70.3727C34.8923 70.809 35.2075 71.2459 35.5209 71.6796L34.9994 71.6509C35.1035 71.7967 35.2107 71.9394 35.3147 72.0852C35.3655 72.1786 35.4162 72.2695 35.4701 72.3635C35.3122 72.3865 35.1543 72.4076 34.9963 72.4307C35.096 72.5816 35.195 72.8567 35.2946 72.8567C35.5002 72.8567 35.7064 72.7115 35.9151 72.6258C36.0298 72.5605 36.1445 72.4985 36.2561 72.4332C36.3708 72.2957 36.4855 72.1581 36.5971 72.02C36.3833 71.9342 36.5895 71.6201 36.3758 71.5344C36.6886 71.2613 36.5845 71.2197 36.9512 70.8998C36.7218 70.8327 36.5388 70.7751 36.3758 70.7258C36.9155 69.9748 37.4626 69.2161 38.0223 68.4363C38.384 69.0159 38.7957 69.7228 39.2589 70.3958C39.4908 70.7284 38.74 70.9414 39.2288 71.3029C39.4426 71.4615 39.8393 71.6745 39.6024 72.1447C39.5698 72.21 39.8826 72.4383 40.0123 72.6104C40.2874 72.9687 40.5469 73.3403 40.8139 73.7069C40.2442 73.9045 40.6892 74.4035 40.651 74.6843C40.577 75.2505 40.6992 76.0092 41.4501 76.2874C41.4043 76.5164 41.2564 76.7941 41.3354 76.9655C41.5974 77.5483 41.0609 77.1402 40.9919 77.2854C40.9261 77.2572 40.8622 77.2284 40.7964 77.1997C40.8572 77.2336 40.918 77.2675 40.9794 77.2988C41.2288 77.7127 41.6438 77.7479 42.2235 77.405C41.6306 77.1216 41.781 76.7423 42.0913 76.3418C42.5262 76.0277 43.0759 76.0789 43.1574 75.4238C43.1956 75.1149 42.9361 74.7854 43.1574 74.4867C43.0327 74.3933 42.8678 74.2711 42.6792 74.1278C43.5673 73.4081 44.2317 72.6853 44.1345 71.5344C44.5801 72.3008 44.3533 73.0979 44.8189 73.8566C45.0559 74.2436 44.6265 74.7125 45.1637 75.136C45.566 75.4558 45.1555 76.3482 45.6895 76.7352C45.949 76.9252 46.7306 76.9655 46.8873 77.5988C47.2006 78.2469 47.0001 78.8763 47.0433 79.4194C47.3028 79.6088 47.5397 79.8506 47.8274 79.9702C47.9847 80.0348 48.2267 79.8922 48.4278 79.8429C48.3182 79.6817 48.2091 79.5205 48.0994 79.3593C48.1884 79.2685 48.3539 79.1751 48.3539 79.0842C48.3338 77.8701 49.4 77.0724 49.4789 76.1704C49.8782 76.8229 49.6118 77.3948 50.1464 78.2705C50.1032 78.2884 50.7105 78.6108 50.5325 78.6863C50.6165 79.0733 50.5325 78.9742 50.9061 79.8141C51.1637 80.0118 51.4181 80.2069 51.6751 80.4039C51.6569 80.5287 51.6419 80.6509 51.6237 80.7756C51.566 81.226 51.7409 81.5739 52.1483 81.8177C51.9496 81.9271 51.7566 82.0339 51.4739 82.1893C51.8199 82.5015 52.0568 82.8444 52.4843 82.6211C52.688 82.5143 52.8252 82.27 52.9907 82.0883C53.3116 81.1812 53.3699 81.4383 53.1712 81.0667L52.975 80.4148L52.9807 80.4174ZM41.5723 78.0626C41.5541 78.1247 41.5341 78.1848 41.5165 78.2469C41.7121 78.3198 41.9083 78.3927 42.1069 78.4522C42.117 78.4548 42.1702 78.3147 42.201 78.2392C41.9922 78.1822 41.781 78.1221 41.5723 78.0652V78.0626Z" fill="#074F08"/>
<path d="M78.6287 43.4725C76.9193 42.4557 75.2301 41.4288 74.0078 39.7821C73.2907 38.8192 72.3701 38.0713 71.1886 37.7205C70.5074 37.5182 70.2523 37.0111 69.9971 36.3811C69.3259 34.7241 69.1242 33.0313 69.341 31.1362C70.711 32.1913 72.0307 33.2106 73.3498 34.2273C73.4975 34.3348 73.6433 34.445 73.791 34.5526C73.8727 34.5935 73.9569 34.6345 74.0386 34.6755C73.9952 34.5961 73.9493 34.5192 73.906 34.4399C73.8701 34.363 73.8318 34.2888 73.796 34.2119C72.5052 32.4781 71.2163 30.7418 69.923 29.008C69.4409 28.3626 68.9866 27.6891 68.443 27.0975C68.1187 26.7441 67.6034 26.5143 67.2 26.2351C67.2025 26.1276 67.2263 26.0275 67.2314 25.9199C67.6575 26.071 68.1237 26.1883 68.5272 26.3855C69.2292 26.7313 69.9047 27.1282 70.5941 27.5047L70.6117 27.5175C70.6909 27.561 70.7676 27.6045 70.8468 27.6455C71.9383 28.8876 73.0588 30.1041 74.1127 31.3769C74.6588 32.0402 75.215 32.4807 76.1382 32.4525C77.1236 32.4218 77.884 32.87 78.3886 33.7945C78.7688 34.491 79.3099 35.1006 79.7975 35.769C81.2718 34.8086 82.6833 33.8892 84.1708 32.9212C85.1889 34.2222 86.1762 35.4847 87.1609 36.7448C87.6586 37.3799 88.2073 37.9817 88.6409 38.6604C89.2127 39.5593 89.8808 40.1099 91.0239 39.923C91.2998 39.8768 91.6925 40.0433 91.9094 40.2431C94.2465 42.3994 96.561 44.5814 98.88 46.7582C98.2195 46.8427 97.5584 46.9861 96.8954 47.0041C95.1552 47.045 93.4126 47.0322 91.6693 47.0399C90.1717 45.9284 88.6591 44.8349 87.1816 43.6953C86.6739 43.3034 86.2396 43.0832 85.5691 43.3291C84.7471 43.6287 84.4593 43.5109 84.2959 42.548C84.0275 40.9704 83.5713 39.4236 83.0478 37.8691C82.9711 39.0881 82.8951 40.3045 82.8002 41.7617C81.9964 40.9704 81.3259 40.3071 80.4939 39.4875V42.361C80.0294 41.8693 79.5858 41.3571 79.0931 40.8935C78.4552 40.2968 78.2026 39.5747 78.2151 38.7192C78.2202 38.3838 78.2893 37.9612 78.1234 37.7231C77.3938 36.6858 76.59 35.7024 75.8145 34.7011C75.7404 34.7446 75.6637 34.7907 75.5895 34.8342C75.8805 36.1532 76.1998 37.4669 76.4524 38.7936C76.6283 39.7155 77.067 40.4146 77.7866 41.0114C78.3993 41.5184 78.9246 42.1484 79.4858 42.7195C79.631 43.4519 79.1239 43.4443 78.6337 43.4622L78.6287 43.4725Z" fill="#114151"/>
<path d="M55.3783 30.2402C55.2527 32.7789 55.9559 35.1083 57.2972 37.2764C57.3809 37.41 57.4305 37.5612 57.6056 37.9469C56.1549 37.3847 54.9024 36.8982 53.6996 36.4343C53.556 36.5503 53.4594 36.5906 53.4355 36.6562C52.9635 37.9217 53.1393 39.1209 53.9636 40.2537C54.2385 40.6293 54.4607 41.0453 54.7691 41.3932C54.9417 41.5898 55.2527 41.8167 55.48 41.7965C56.0995 41.7461 56.3088 42.0864 56.518 42.5302C57.151 43.8612 57.8072 45.1797 58.4447 46.5083C58.5129 46.6469 58.5155 46.8158 58.56 47.0402H43.9324C44.9988 44.5293 46.0419 42.0688 47.1167 39.5377C46.8134 39.3763 46.5391 39.2327 46.1624 39.0335C47.2236 37.5764 48.241 36.1873 49.2552 34.7957C49.2893 34.7175 49.326 34.6393 49.3595 34.5612L49.1637 34.5864C47.4199 34.7705 46.2016 35.8142 45.0116 36.9234C44.4888 37.41 43.9112 37.8461 43.2106 38.4259C43.161 37.1856 43.255 36.2528 44.1462 35.4486C45.0303 34.652 45.7702 33.7091 46.5725 32.8318C46.6511 32.8167 46.7219 32.789 46.787 32.7486C47.3124 32.668 47.9402 32.9831 48.3247 32.3705C49.1611 32.073 49.995 31.7755 51.0408 31.4024V34.9847C51.1271 35.0049 51.2159 35.0226 51.3022 35.0428C52.2147 33.8654 53.1297 32.6881 54.0396 31.5159C54.4188 31.6772 54.7376 31.8133 55.122 31.9772C55.1587 31.3217 55.187 30.7822 55.2186 30.2453L55.2997 30.2402H55.3809H55.3783Z" fill="#114152"/>
<path d="M38.3885 43.842C37.6631 44.8923 36.9149 45.936 36.2258 47.012C35.8876 47.5397 35.4127 47.3955 34.9715 47.3955C31.1102 47.4033 27.2487 47.3955 23.3875 47.3955C22.7887 47.3955 22.1873 47.3955 21.3227 47.3955C21.7795 47.1381 22.0247 46.9734 22.2931 46.8575C22.8816 46.6002 23.501 46.4122 24.0689 46.1214C25.4368 45.4212 26.8513 45.0582 28.3869 45.3646C29.1535 45.5165 29.7085 45.2513 30.0753 44.5615C30.1732 44.3762 30.3436 44.2268 30.4567 44.0466C31.484 42.4353 32.7644 41.0993 34.5297 40.2834C34.7052 40.2035 34.8552 40.0697 35.1985 39.8432C34.3129 39.6991 33.681 39.7093 33.0383 39.9668C32.4084 40.2216 31.7555 40.4275 31.0994 40.6128C30.4313 40.8033 29.959 41.1508 29.8064 41.8613C29.7009 42.3581 29.3703 42.6464 28.9081 42.8394C28.3201 43.0865 27.7518 43.3774 27.1739 43.6503C26.7739 43.4572 26.0898 43.8948 25.9557 43.1071C25.1091 42.9475 24.3554 43.2024 23.6069 43.5782C21.3872 44.6928 19.1287 45.7352 16.9399 46.9065C15.6959 47.5731 14.457 47.6504 12.96 47.3595C14.7254 46.3711 16.3618 45.4573 17.9931 44.5409C19.3352 43.7867 20.698 43.066 22.0118 42.2654C23.3591 41.4417 24.8871 41.1791 26.3661 40.7904C27.1094 40.5948 27.7079 40.3451 28.1726 39.7145C28.7975 38.8625 29.6259 38.2781 30.7097 38.1263C30.8337 38.1083 30.945 38.0233 31.0689 37.9873C32.011 37.7144 32.9888 37.1532 33.8845 37.2614C34.7802 37.3695 35.5933 38.152 36.4864 38.6617C37.2582 37.6912 38.0013 36.6925 38.8169 35.7581C39.2867 35.2201 39.8729 34.7851 40.4069 34.3038C41.1023 34.2934 41.5365 33.946 41.7107 33.2612L41.7031 33.269C42.4901 33.3694 42.8207 32.8957 43.0088 32.2419L43.0012 32.2471C43.3343 32.2883 43.5454 32.1853 43.5377 31.8095C43.5638 31.7348 43.6178 31.7014 43.6954 31.7065C43.9872 31.6293 44.3355 31.6241 44.5574 31.4568C44.9471 31.1634 45.2592 31.0604 45.6 31.48C45.5873 31.5675 45.5745 31.6576 45.5612 31.7451C44.9681 31.7297 45.1022 32.1673 45.0812 32.5096C44.991 32.5972 44.9007 32.6847 44.8104 32.7722C43.8505 32.9729 43.4297 33.39 43.2695 34.3064L43.2618 34.314C42.6681 34.2317 42.4074 34.4814 42.4977 35.0785C41.5194 36.085 40.541 37.0915 39.5633 38.1005C39.22 38.4557 38.7527 38.7338 38.9721 39.385C39.0185 39.524 38.7553 39.8046 38.5849 39.9668C38.1851 40.3477 37.7795 40.7338 37.3281 41.0504C36.2048 41.8458 35.8437 43.035 35.4254 44.4611C36.1095 44.111 36.6129 43.8536 37.1164 43.5987C37.5366 43.6811 38.0236 43.3298 38.3567 43.842H38.3885ZM43.7291 32.9009L43.6566 32.8545L43.6464 32.9318L43.7291 32.9009Z" fill="#154252"/>
<path d="M55.0913 30.1843C55.0627 30.7278 55.0322 31.2739 54.996 31.9373C54.6165 31.7714 54.3019 31.6337 53.9275 31.4704C53.0294 32.6569 52.1288 33.8485 51.2256 35.0402C51.1404 35.0198 51.0527 35.0019 50.9675 34.9815V31.3555C49.9353 31.7332 49.1122 32.0343 48.2866 32.3354C48.4486 31.9118 48.6241 31.4959 48.769 31.0646C48.8955 30.6819 48.9857 30.2864 49.0912 29.8985L49.0836 29.9113C49.1764 29.7785 49.2667 29.6484 49.3601 29.5158L49.3442 29.5413C49.5145 29.3218 49.7287 29.1228 49.8476 28.8778C49.9868 28.592 49.8266 28.4261 49.5095 28.421C49.5406 28.0919 49.5711 27.7627 49.6156 27.3059C48.7842 27.7959 48.1518 28.1684 47.52 28.541C47.9586 27.6428 48.4798 26.7727 48.8179 25.8362C49.3105 24.4608 50.3815 23.708 51.5377 22.9757C53.1171 21.978 54.668 20.9369 56.2189 19.8932C56.6422 19.61 57.0089 19.2477 57.4113 18.9312C57.7933 18.6301 58.1162 18.6633 58.5573 18.9542C60.7196 20.378 62.8927 21.7943 65.125 23.1084C65.9093 23.5703 66.8901 23.7004 67.7519 24.0551C68.1549 24.2209 68.5572 24.4965 68.8382 24.8231C69.3905 25.4611 69.8787 26.1602 70.356 26.8568C70.4901 27.0508 70.4952 27.3315 70.56 27.5714C69.8653 27.1963 69.1814 26.8007 68.4695 26.4562C68.0615 26.2598 67.6153 26.1475 67.1843 25.9969C66.4693 25.7954 65.7625 25.5248 65.0137 25.6321C64.9394 26.7879 65.5273 27.5943 66.147 28.3905C65.7466 28.2143 65.3519 28.0332 64.9495 27.8648C64.7303 27.7729 64.5059 27.6989 64.2809 27.6199C64.0877 27.3774 63.8913 27.135 63.7108 26.9079C63.2646 27.0329 63.3853 27.7806 62.7739 27.6096C62.5597 27.0967 62.116 26.8926 61.6953 27.1937C61.298 27.4769 61.0603 27.972 61.6152 28.416C62.0232 29.4953 62.4307 30.5747 62.8387 31.6541C62.784 31.7051 62.7249 31.751 62.6633 31.7918C62.4383 31.6796 62.2114 31.5673 61.987 31.4576L61.9972 31.4704C61.9095 31.3785 61.8217 31.2892 61.734 31.1974L61.7467 31.2101C61.5999 30.7005 61.2001 30.2294 61.148 30.1664C60.405 29.2631 59.6956 28.0689 59.5024 26.9079C59.8279 26.6834 60.3402 26.6425 60.7533 26.3568C59.9556 24.4634 59.3677 22.422 57.5562 20.8527C57.3801 21.215 57.2435 21.4932 57.1094 21.7687L57.1278 21.7432C57.0369 21.9218 56.9441 22.1005 56.8539 22.2765L56.8698 22.2561C56.6911 22.519 56.5157 22.7818 56.3378 23.0446L56.3536 23.0242L55.8216 23.8101L55.8369 23.7872C55.2979 24.1648 54.9725 24.6522 55.0449 25.336L55.0576 25.3233C53.6898 26.025 53.5144 27.0482 54.56 28.2195L54.5263 28.2348C54.6165 28.4542 54.7093 28.6737 54.7996 28.8957L54.7818 28.8727C54.872 29.0513 54.9649 29.2274 55.0551 29.406L55.0399 29.3856L55.0913 30.1817V30.1843Z" fill="#9EBDBE"/>
<path d="M32.6399 27.6166C32.6522 24.8846 34.7182 22.9982 37.425 23.0407C39.4978 23.0733 41.8019 24.7095 41.7593 27.6967C41.7242 30.1885 39.956 32.1774 37.1567 32.1599C34.5579 32.1424 32.672 30.3536 32.6399 27.6166Z" fill="#F9B136"/>
<path d="M62.0972 31.4497C62.323 31.5631 62.5514 31.6766 62.7778 31.7875C62.8968 32.0247 63.0139 32.262 63.1335 32.4966L63.3389 32.6617C63.2947 32.5818 63.2506 32.5018 63.2064 32.4219L62.9544 31.6456C62.5437 30.5548 62.1336 29.464 61.7229 28.3732C61.8425 28.368 61.9596 28.3603 62.0786 28.3551C63.2167 30.6554 64.4034 32.9325 65.4762 35.261C66.4114 37.2854 67.3595 39.2788 69.12 40.7513C69.12 40.9266 69.12 41.1045 69.12 41.2799C68.2942 40.8363 67.4606 40.4031 66.6475 39.9364C66.437 39.8151 66.2451 39.6037 66.1306 39.3897C64.8006 36.9115 60.3667 29.0471 59.0553 26.5586C58.9823 26.4193 59.1832 26.4316 59.4071 26.3999L62.0972 31.4497ZM63.6063 33.0897C63.5851 33.0614 63.5647 33.033 63.541 33.0021C63.518 33.0304 63.4713 33.0717 63.479 33.0846C63.4969 33.1207 63.5384 33.1465 63.5724 33.1749C63.5826 33.1465 63.596 33.1181 63.6063 33.0897ZM63.8609 33.5875C63.8398 33.572 63.8059 33.5385 63.7982 33.5436C63.77 33.5642 63.7489 33.5952 63.7227 33.621L63.8558 33.6725C63.8558 33.6442 63.8583 33.6158 63.8609 33.5875Z" fill="#26404F"/>
<path d="M47.4377 28.5834C48.0414 28.2143 48.6456 27.8452 49.4399 27.3599C49.398 27.8098 49.3683 28.1384 49.3385 28.4645C49.2966 28.5732 49.2547 28.6794 49.2128 28.7881C47.9752 29.6779 46.7376 30.5676 45.4993 31.4574C45.1744 31.0454 44.8757 31.1465 44.5034 31.4347C44.2915 31.599 43.9587 31.604 43.6799 31.6799C44.9327 30.6485 46.1874 29.6172 47.4402 28.5858L47.4377 28.5834Z" fill="#26404F"/>
<path d="M57.1201 21.556C57.2614 21.2779 57.4028 21.0024 57.5903 20.6401C59.4999 22.2065 60.1195 24.2499 60.9601 26.1429C60.5247 26.4286 60.1825 26.6531 59.8368 26.8801C59.652 26.7169 59.4698 26.5562 59.157 26.2806C59.5462 26.1658 59.8067 26.0867 60.1905 25.9745C59.9809 25.5179 59.7933 25.0612 59.5703 24.625C59.1054 23.7168 58.5997 22.829 58.1536 21.9132C57.9172 21.4259 57.5903 21.3519 57.1201 21.5611V21.556Z" fill="#26404F"/>
<path d="M64.3201 27.3624C64.5348 27.4435 64.7538 27.5145 64.9655 27.6058C65.3539 27.7731 65.7355 27.9531 66.1214 28.1281L66.1061 28.1128C66.1938 28.2016 66.2834 28.2928 66.3705 28.3815L66.3528 28.3663C66.3755 28.4323 66.3951 28.4982 66.4178 28.5641C66.4853 28.4982 66.5497 28.4348 66.6172 28.3689L66.7117 28.2954C67.3547 28.8632 67.9971 29.4312 68.6401 29.999C68.5922 30.0802 68.5425 30.1587 68.4953 30.2399C67.367 29.6973 66.2086 29.2131 65.13 28.5819C64.7538 28.3613 64.5845 27.7782 64.3201 27.3599V27.3624Z" fill="#114151"/>
<path d="M66.0565 28.0779C65.376 27.323 64.7251 26.5559 64.8071 25.4621C65.6325 25.363 66.4117 25.617 67.2 25.8082C67.1972 25.9098 67.1944 26.0115 67.1888 26.1131C66.5568 26.0405 65.9282 25.9679 65.0523 25.8663C65.6893 26.764 66.2365 27.5352 66.7572 28.2708L66.6388 28.3199C66.5393 28.3199 66.4201 28.3054 66.3206 28.3054L66.341 28.3199C66.2415 28.2352 66.1384 28.1482 66.0389 28.0635L66.0565 28.0779Z" fill="#114151"/>
<path d="M79.6078 42.805C80.0049 43.2062 80.4044 43.6098 80.8009 44.011C81.0667 44.3768 81.3348 44.7426 81.6 45.1084C81.5052 45.1132 81.4128 45.1179 81.3174 45.1202C80.477 44.5798 79.5604 43.9845 78.72 43.4464C79.1879 43.4299 79.6684 43.3952 79.5298 42.7202L79.6078 42.805Z" fill="#114151"/>
<path d="M91.6799 46.9191C93.4361 46.9082 95.2751 46.8877 97.0313 46.8294C97.7 46.8075 98.2966 46.684 98.9628 46.5601C99.1249 46.7169 99.4182 47.0218 99.8399 47.4339C99.3282 47.474 99.1097 47.5069 98.8887 47.5069C96.9242 47.5142 94.9598 47.5361 92.9953 47.4995C92.6045 47.4923 92.2182 47.4129 91.825 47.113L91.6799 46.9191Z" fill="#114151"/>
<path d="M38.3351 43.6798C37.912 43.2319 37.4268 43.4727 36.96 43.3887C37.833 42.8562 38.7526 42.2922 39.6256 41.7598C39.6968 41.8158 39.7687 41.8719 39.84 41.9279C39.3908 42.5063 39.0071 43.1228 38.4056 43.6145L38.3351 43.6798Z" fill="#154252"/>
<path d="M26.0683 42.7202C26.2106 43.5536 26.9358 43.0906 27.36 43.2948C26.6211 43.7442 25.885 44.1908 25.1461 44.6402L24.96 44.4441C25.3295 43.8695 25.6989 43.2948 26.0683 42.7202Z" fill="#154252"/>
<path d="M54.5133 28.32C53.192 27.2807 53.7275 25.0889 55.2 24.96C55.1317 25.1171 54.9423 25.6958 54.8312 25.8136C54.103 26.581 54.0508 27.419 54.5133 28.32Z" fill="#26404F"/>
<path d="M62.0992 28.301C61.9846 28.3064 61.8718 28.3145 61.7566 28.3199C61.2186 27.8503 61.4491 27.3266 61.8342 27.0271C62.2422 26.7113 62.6723 26.9245 62.8799 27.467C62.57 27.4886 62.2619 27.5102 61.9396 27.5345C61.9969 27.8125 62.0493 28.0581 62.0992 28.301Z" fill="#26404F"/>
<path d="M43.2 34.0801C43.3497 33.2224 43.7429 32.8286 44.64 32.6401C44.16 33.1209 43.68 33.5993 43.2 34.0801Z" fill="#26404F"/>
<path d="M54.7202 79.6802C54.5607 79.6802 54.3998 79.674 54.2402 79.6709C54.2782 79.2203 54.3183 78.7697 54.3563 78.3191C54.396 78.2941 54.4361 78.2683 54.4758 78.2402C54.5572 78.7189 54.6387 79.1984 54.7202 79.6771V79.6802Z" fill="#064E07"/>
<path d="M41.7601 33.1201C41.5676 33.7522 41.0878 34.0722 40.3201 34.0801C40.7991 33.7602 41.281 33.4401 41.7601 33.1201Z" fill="#26404F"/>
<path d="M54.8953 24.96C54.3687 24.6579 55.1458 23.8711 55.68 23.52C55.4188 23.9993 55.1558 24.4808 54.8953 24.96Z" fill="#26404F"/>
<path d="M43.2 32.1602C42.9925 32.7634 42.6251 33.2004 41.76 33.1077C42.2409 32.7919 42.7191 32.4761 43.2 32.1602Z" fill="#26404F"/>
<path d="M69.1199 41.3018C69.1199 41.1353 69.1199 40.9663 69.1199 40.7998C69.3784 41.0471 69.6352 41.2944 69.8937 41.5418C69.9385 41.6054 70.586 42.1972 70.5591 42.2383C70.5385 42.2695 69.8036 41.796 69.7534 41.7597C69.5429 41.6079 69.3303 41.4536 69.1199 41.3018Z" fill="#26404F"/>
<path d="M42.2605 35.0401C42.1527 34.3048 42.47 33.9975 43.2 34.0989C42.8858 34.4126 42.5716 34.7264 42.2605 35.0401Z" fill="#26404F"/>
<path d="M56.1599 23.0401C56.4811 22.7201 56.7976 22.4001 57.1199 22.0801C56.7976 22.4001 56.4811 22.7201 56.1599 23.0401Z" fill="#335257"/>
<path d="M55.6799 23.52L56.6259 23.04C56.6904 23.2863 56.558 23.4889 55.6799 23.52Z" fill="#26404F"/>
<path d="M45.5375 31.6804C45.5573 31.7353 45.5778 31.7902 45.5999 31.8452C45.4408 31.9502 45.2817 32.0552 45.1199 32.1602C45.1381 31.9453 45.0216 31.6707 45.5375 31.6804Z" fill="#26404F"/>
<path d="M43.6796 31.6802C43.6893 32.0846 43.4977 32.1954 43.2 32.151C43.3591 31.9932 43.5182 31.8381 43.6796 31.6802Z" fill="#26404F"/>
<path d="M35.3305 72.48C35.2342 72.3188 35.1363 72.1612 35.04 72L35.52 72.0318C35.4567 72.181 35.3933 72.3308 35.3305 72.48Z" fill="#335257"/>
<path d="M60.4406 86.3999C60.294 86.39 60.1466 86.3794 60 86.3694L60.96 85.9199C60.7875 86.0791 60.614 86.2383 60.4406 86.3974V86.3999Z" fill="#335257"/>
<path d="M81.1199 45.1487C81.2249 45.1373 81.3265 45.1259 81.4309 45.1201C81.487 45.2802 81.5438 45.4401 81.5999 45.6001C81.4388 45.4516 81.281 45.3029 81.1199 45.1544V45.1487Z" fill="#114151"/>
<path d="M55.2 29.2798C55.0415 29.119 54.8785 28.9606 54.72 28.7998C54.8785 28.9606 55.0415 29.119 55.2 29.2798Z" fill="#335257"/>
<path d="M75.8289 78.7202C75.6215 78.5876 75.4912 78.5035 75.3599 78.4218C75.5329 78.3567 75.6945 78.2584 75.88 78.2412C76.0113 78.2294 76.1718 78.3283 76.3199 78.3786C76.1677 78.4846 76.0155 78.59 75.8289 78.7202Z" fill="#9EBDBE"/>
<path d="M45.6 86.88C45.3091 86.739 44.9952 86.6526 44.7327 86.4465C44.2079 86.0335 43.734 85.5007 43.0602 85.6151C42.9643 85.6303 42.8356 85.2423 42.72 85.0422C44.0052 84.6762 44.8708 85.575 45.6 86.88Z" fill="#064E07"/>
<path d="M47.9977 87.8399H46.6444C46.6131 87.4216 46.5866 87.0661 46.5601 86.7085C46.5937 86.5364 46.6273 86.3671 46.7158 85.9199C47.2214 86.6768 47.6095 87.2587 48.0001 87.8399H47.9977Z" fill="#064E07"/>
<path d="M36.0001 79.6798C34.6572 79.4686 34.2853 79.0975 34.0801 77.7598C35.0259 77.9355 35.8272 78.7359 36.0001 79.6798Z" fill="#064E07"/>
<path d="M38.4 81.6001C37.7373 81.4547 37.0605 81.3211 36.96 80.6401C37.3921 80.7874 37.8502 80.9023 38.2463 81.0971C38.3781 81.162 38.3521 81.426 38.4 81.6001Z" fill="#064E07"/>
<path d="M36.96 80.6402C36.3695 80.59 36.0526 80.2686 36 79.6802C36.5255 79.7954 36.8447 80.115 36.96 80.6402Z" fill="#064E07"/>
<path d="M30.24 72C30.24 71.8404 30.24 71.6797 30.24 71.52C30.3562 71.5776 30.4698 71.6393 30.72 71.7666C30.4718 71.8848 30.3562 71.9424 30.242 72H30.24Z" fill="#9EBDBE"/>
<path d="M47.0421 32.6283C47.6821 31.673 48.32 30.715 48.96 29.7598C48.8728 30.157 48.8003 30.5567 48.6936 30.9461C48.5765 31.3822 48.4288 31.808 48.2948 32.2389C47.9811 32.8697 47.4688 32.5452 47.04 32.6283H47.0421Z" fill="#26404F"/>
<path d="M49.4421 29.2798C49.4509 29.0529 49.4603 28.826 49.4691 28.5991C49.5071 28.5053 49.5451 28.4136 49.5831 28.3198C49.8599 28.3242 49.9965 28.466 49.8759 28.7104C49.773 28.9198 49.5875 29.09 49.4399 29.2777L49.4421 29.2798Z" fill="#26404F"/>
<path d="M48.96 29.7598C49.1211 29.5987 49.2778 29.4408 49.44 29.2798C49.2778 29.4408 49.1211 29.5987 48.96 29.7598Z" fill="#335257"/>
<path d="M63.0489 32.1602C63.1535 32.3202 63.2567 32.4802 63.3599 32.6402L62.8799 32.3098L63.0489 32.1602Z" fill="#9EBDBE"/>
<path d="M66.24 28.3259C66.3993 28.3259 66.5618 28.3259 66.72 28.3259C66.5975 28.4859 66.4805 28.6398 66.358 28.7998C66.3168 28.6398 66.2812 28.4798 66.24 28.3198V28.3259Z" fill="#114151"/>
<path d="M13.9199 63.3599C15.6971 73.9915 21.1688 83.5064 29.3828 90.4746C37.5975 97.4427 48.0122 101.271 58.7783 101.28C69.5438 101.289 79.9649 97.4777 88.191 90.5235C96.4165 83.5694 101.885 73.9883 103.68 63.3599H101.742C100.026 73.52 94.7605 82.3415 86.8972 88.9896C79.0333 95.6377 69.0717 99.2808 58.7796 99.2719C48.4875 99.2636 38.5316 95.6039 30.6791 88.9425C22.8269 82.2817 17.5889 73.5232 15.8899 63.3599H13.9199Z" fill="#0A2224"/>
<path d="M25.9199 63.3599C27.4747 70.8658 31.5597 77.3936 37.4914 82.2393C43.4226 87.0856 50.8389 89.7408 58.4942 89.7598C66.1495 89.7781 73.5785 87.1597 79.533 82.3425C85.4882 77.5253 89.6086 70.8582 91.1999 63.3599H89.7458C88.2246 70.5277 84.3033 76.5934 78.6105 81.1985C72.9171 85.8029 65.8157 88.3068 58.4974 88.2885C51.1797 88.2707 44.0903 85.7327 38.4196 81.0997C32.7496 76.4674 28.86 70.5353 27.3742 63.3599H25.9199Z" fill="#0A2224"/>
<path d="M12.171 50.5362H16.9665L21.4576 59.3836H18.1972L17.3345 57.909H11.8031L10.9404 59.3836H7.67993L12.171 50.5362ZM14.7844 52.5312H14.3531L12.8434 55.6166H16.2815L14.7844 52.5312ZM35.5829 50.5486H32.7919V56.6451C32.8597 56.8764 32.9276 57.1036 32.9948 57.3266C32.9948 57.4092 32.9993 57.4919 33.0075 57.5745C32.9485 57.5745 32.8895 57.5208 32.8299 57.4134C32.7792 57.306 32.7284 57.1986 32.6777 57.0912L27.9075 50.5486H23.3405V59.396H26.1316V53.2871C26.1316 53.2788 26.0596 53.0516 25.9159 52.6056C25.9074 52.523 25.9032 52.4403 25.9032 52.3577C25.9624 52.3577 26.0174 52.4155 26.0681 52.5312C26.1273 52.6386 26.1823 52.7419 26.2331 52.841L31.0157 59.396H35.5829V50.5486ZM44.3285 50.5362H47.1195V57.2275C47.1195 58.1775 46.6926 58.8177 45.8382 59.1482C45.1956 59.396 44.0665 59.5199 42.4508 59.5199C40.8441 59.5199 39.7188 59.396 39.0762 59.1482C38.2135 58.8177 37.7821 58.1775 37.7821 57.2275V55.4927H40.5732V56.3106C40.5732 56.6658 40.7508 56.9136 41.106 57.054C41.4023 57.1697 41.8501 57.2275 42.4508 57.2275C43.0598 57.2275 43.5038 57.1738 43.7829 57.0664C44.1464 56.926 44.3285 56.6741 44.3285 56.3106V50.5362ZM49.4056 59.396V50.5486H52.1967V59.396H49.4056ZM60.7132 52.8162V50.5238H71.5096V52.8162H67.5133V59.3836H64.7222V52.8162H60.7132ZM85.8467 54.9599C85.8467 57.116 85.5803 58.4047 85.0475 58.826C84.4721 59.2803 82.7385 59.5075 79.846 59.5075C77.7317 59.5075 76.3445 59.4332 75.6847 59.2845C74.8557 59.0944 74.3317 58.6814 74.1116 58.0453C73.9422 57.5579 73.8579 56.5294 73.8579 54.9599C73.8579 52.8038 74.1198 51.5151 74.6444 51.0938C75.2198 50.6312 76.9534 50.3999 79.846 50.3999C82.7303 50.3999 84.4595 50.6271 85.0348 51.0814C85.5759 51.511 85.8467 52.8038 85.8467 54.9599ZM76.6489 54.9599C76.6489 56.0917 76.7802 56.7525 77.0422 56.9425C77.3131 57.1242 78.2474 57.2151 79.846 57.2151C81.4527 57.2151 82.3877 57.1242 82.6497 56.9425C82.9206 56.7525 83.0557 56.0917 83.0557 54.9599C83.0557 53.8199 82.9206 53.159 82.6497 52.9773C82.3877 52.7873 81.4572 52.6923 79.8587 52.6923C78.2519 52.6923 77.3131 52.7873 77.0422 52.9773C76.7802 53.159 76.6489 53.8199 76.6489 54.9599ZM99.4138 50.5362V55.9264C99.4138 57.5291 99.0542 58.5368 98.3355 58.9499C97.684 59.3299 96.1198 59.5199 93.6414 59.5199C91.172 59.5199 89.6115 59.3299 88.96 58.9499C88.2413 58.5286 87.8817 57.5208 87.8817 55.9264V50.5362H90.6727V55.9264C90.6727 56.4634 90.825 56.8062 91.1295 56.9549C91.4929 57.1366 92.3303 57.2275 93.6414 57.2275C94.9354 57.2275 95.7556 57.1449 96.1026 56.9797C96.4496 56.8062 96.6228 56.4551 96.6228 55.9264V50.5362H99.4138ZM101.409 50.5238H109.529C110.527 50.5238 111.233 50.7014 111.648 51.0566C112.095 51.4449 112.32 52.1264 112.32 53.1012C112.32 53.8612 112.227 54.4229 112.041 54.7864C111.854 55.1499 111.529 55.4225 111.064 55.6042C111.571 55.8191 111.905 56.0338 112.066 56.2486C112.235 56.4634 112.32 56.8475 112.32 57.401V59.3836H109.529V57.7975C109.529 57.5662 109.465 57.3721 109.339 57.2151C109.177 57.0086 108.936 56.9053 108.615 56.9053H104.201V59.3836H101.409V50.5238ZM104.201 52.8162V54.6129H108.679C108.983 54.6129 109.199 54.551 109.326 54.4271C109.461 54.2949 109.529 54.0595 109.529 53.7208C109.529 53.3821 109.461 53.1466 109.326 53.0145C109.19 52.8823 108.974 52.8162 108.679 52.8162H104.201Z" fill="black"/>
<path d="M54.24 25.4401L57.6 20.6401L56.2865 23.3786L54.8814 25.1632L54.24 25.4401Z" fill="#26404F"/>
<path d="M86.9251 67.948C86.4643 67.6939 85.9649 67.016 85.7731 66.7092L85.5021 65.2798L84.96 66.7092L86.0781 69.5998L86.9251 69.441L87.84 69.2821L87.4673 69.1233C86.6541 68.8692 86.5185 68.4455 86.5524 68.2657H87.4673L86.9251 67.948Z" fill="#064E07"/>
<path d="M83.8871 68.1468C84.1807 67.9068 84.4704 67.7355 84.48 67.6802L84.2824 69.5135L83.6047 70.0802H83.04C83.3337 70.0535 83.7273 69.5135 83.8871 69.2468L84.1412 68.3802L83.4353 68.5468L83.8871 68.1468Z" fill="#064E07"/>
<path d="M80.1742 67.6802C80.13 68.4484 80.418 70.0872 81.9201 70.4995H80.7342C80.8001 70.7318 81.1954 71.2574 82.2495 71.5H81.0307C81.2724 71.8838 82.0123 72.7065 83.0401 72.9248L80.4048 73.0764L79.3876 70.0339L79.0871 71.8638L78.0989 73.2583L76.3201 73.4402C76.6363 73.3917 77.5718 72.8945 78.0001 72.652L78.9224 71.6515H77.6048C78.0791 71.5545 78.6148 71.2677 78.8236 71.1362L78.6589 70.4995L78.0001 70.5905C78.369 70.4207 79.0212 69.3275 79.0871 69.1353L80.1742 67.6802Z" fill="#064E07"/>
<path d="M73.9927 71.04L73.4399 72.3991L73.7599 73.3052V74.3407L75.0109 76.8L76.3199 76.347C75.8545 76.4247 75.3309 76.0558 75.1272 75.8616L74.6327 75.1821H75.7381L75.8254 75.0203C75.0807 75.0462 74.5454 74.5782 74.3709 74.3407L74.2545 73.9848H75.389C74.6909 73.8553 74.3418 73.2405 74.2545 72.9493L74.1381 71.04H73.9927Z" fill="#064E07"/>
<path d="M72.96 72.96C72.9594 72.9625 72.9587 72.9656 72.958 72.9687L72.7543 73.7392L72.3086 75.36H71.04L71.5886 74.8613L72.3086 74.0197L71.5886 74.1444L71.8972 73.8639C72.2208 73.5939 72.9024 73.1414 72.958 72.9687L72.96 72.96Z" fill="#064E07"/>
<path d="M70.1968 77.686L71.2866 76.7998L71.5201 77.6029V78.2398H70.0801L71.2866 77.686H70.1968Z" fill="#064E07"/>
<path d="M68.5395 75.3599L68.1042 76.5669L66.3963 78.441H66.9991L66.7312 79.0128C66.4365 79.4448 65.9609 79.6373 65.76 79.6799L69.3768 79.2987L70.08 79.1399C69.3835 78.962 69.1423 78.4728 69.1088 78.2505L69.9795 78.0916C69.3901 77.99 68.997 77.1387 68.8744 76.7257L68.6735 75.3599H68.5395Z" fill="#064E07"/>
<path d="M63.09 78.2402L62.67 79.5466C62.61 79.5959 62.472 79.7842 62.4 80.1404C62.328 80.4967 61.83 80.8037 61.59 80.9124H62.25L62.19 81.1202C62.094 81.334 61.47 81.704 61.17 81.8625H61.95L61.83 82.1C61.566 82.5038 60.8202 83.0008 60.48 83.1986H61.17L62.67 84.0002L64.62 82.1891L65.28 81.5953C64.896 81.6428 64.4802 81.2788 64.32 81.0905L64.23 80.7046L64.92 80.5858C64.512 80.5858 64.0302 79.8928 63.84 79.5466L63.21 78.359L63.09 78.2402Z" fill="#064E07"/>
<path d="M54.1643 78.2402L54.0672 79.1845C54.0886 79.216 54.0931 79.3419 53.9378 79.5937C53.7825 79.8455 52.9237 80.4328 52.514 80.6953H53.2259C53.2369 80.779 53.2518 80.9786 53.2259 81.1045C53.2 81.2304 52.6111 81.5974 52.3198 81.7655H53.0965L53.4524 82.0173L54.8115 82.1747L56.0735 84.3779L57.109 85.9202H58.0798L57.109 85.637L56.9149 84.976L57.6915 84.6297H57.109L56.9149 84.3779L56.5589 83.7799H57.3356L56.3971 82.9615L56.0735 82.6153L55.7176 81.9229L56.5589 81.797L55.5234 81.4507L55.3616 80.7268L55.1027 80.2547H55.7176L55.1998 80.0029C54.8892 79.9273 54.8115 79.6359 54.8115 79.4993L54.3908 78.2402H54.1643Z" fill="#064E07"/>
<path d="M49.3816 75.8398L49.1785 76.7791C48.9416 77.1861 48.4677 78.0815 48.4677 78.407C48.4677 78.7326 47.8361 79.0019 47.52 79.0958H48.3662L48.4677 80.0976C49.2347 80.3481 51.2296 80.8866 51.4462 81.0369C51.6628 81.1871 52.3715 81.0995 52.6985 81.0369L52.8 80.849C52.3397 81.1746 51.7054 80.7132 51.4462 80.442H52.2585V80.3168C51.0129 80.2166 50.6792 79.5654 50.6677 79.2523H51.7508V79.0958C51.0197 79.0207 50.5885 78.4384 50.4646 78.1566H51.4462V78.0001C50.7422 78.0001 50.16 77.1861 49.9569 76.7791L49.5508 75.8398H49.3816Z" fill="#064E07"/>
<path d="M43.89 72.1613L44.13 71.04H44.37L44.97 72.6559C45.0702 72.9745 45.39 73.6518 45.87 73.8101V74.008H45.12C45.2898 74.3707 45.744 75.0962 46.2 75.0962L45.45 75.2281L45.87 75.7228C45.93 75.9536 46.248 76.4021 47.04 76.3494L46.35 76.7781V77.2727L44.13 79.68L43.44 77.6355L42.21 76.9759H41.28C41.6202 76.7668 42.36 76.2043 42.6 75.6239C42.735 75.298 42.8004 75.151 42.828 75.0962H41.94C42.1602 75.0303 42.648 74.773 42.84 74.2718C42.9138 74.0792 42.975 73.9677 43.0248 73.909H42.21C42.6198 73.7224 43.422 73.2297 43.35 72.7548L43.89 72.1613Z" fill="#064E07"/>
<path d="M38.2761 67.6802L37.3781 69.2227C37.3254 69.4853 36.2205 70.1857 35.6749 70.5027H36.8207V70.8638L35.9536 71.4217L35.52 71.7171H36.8207L37.6878 72.275L39.7316 75.3602H41.28L40.0413 74.5397H41.28L40.0413 73.9161H41.28V73.7192L40.1961 73.5879V73.0299L39.8555 72.5376L39.5768 72.275L39.1742 71.7171H40.0413C39.3724 71.1395 39.1847 70.6668 39.1742 70.5027H39.7316V70.273C38.6663 70.168 38.5035 69.4197 38.5549 69.0586V67.6802H38.2761Z" fill="#064E07"/>
<path d="M32.6177 65.2798L32.4167 66.4916C32.4281 66.424 32.3431 66.4627 31.9144 67.1552C31.4858 67.8476 30.7758 68.1171 30.4744 68.165H31.68C31.0906 68.7189 30.4744 68.9728 30.24 69.0305C31.0323 68.963 32.7382 68.8689 33.2205 69.0305C33.7027 69.1921 34.3142 69.098 34.56 69.0305L33.6893 68.3669L33.2205 67.7322H34.0242C33.5152 67.686 33.1421 67.0011 33.0195 66.6647L32.6177 65.2798Z" fill="#064E07"/>
<path d="M40.3202 91.6061L38.3852 90.659L37.5713 91.5247L36.96 91.2258L40.6118 87.3599L41.28 87.6867L40.8294 93.1199L40.2186 92.821L40.3202 91.6061ZM40.373 91.0284L40.6118 88.2735L38.7698 90.2435L40.373 91.0284Z" fill="black"/>
<path d="M42.8525 91.6254C42.9853 91.2062 43.1833 90.8672 43.4476 90.6076C43.7139 90.3434 44.0178 90.1716 44.3592 90.0929C44.7057 90.0154 45.0591 90.0367 45.4181 90.1562C45.7288 90.2595 45.9945 90.4306 46.2144 90.6696C46.4355 90.9034 46.579 91.163 46.6442 91.4497L47.3296 89.2798L48 89.5032L46.2501 95.0398L45.5797 94.8163L45.8234 94.0459C45.6154 94.2467 45.3573 94.3836 45.049 94.4579C44.7433 94.5264 44.4175 94.5038 44.0729 94.3888C43.7183 94.2706 43.4238 94.073 43.1889 93.7966C42.959 93.5215 42.813 93.1941 42.7503 92.815C42.6877 92.4359 42.7221 92.0393 42.8525 91.6254ZM46.23 92.7588C46.3278 92.4494 46.3522 92.1601 46.3033 91.8902C46.2545 91.6202 46.1448 91.3903 45.9738 91.2011C45.809 91.0086 45.6029 90.8711 45.3554 90.7884C45.1079 90.7057 44.863 90.6909 44.6211 90.7426C44.3793 90.7942 44.1613 90.9143 43.9677 91.1036C43.7734 91.2921 43.6281 91.5414 43.5304 91.8508C43.4307 92.1653 43.405 92.4598 43.452 92.7349C43.5009 93.0048 43.608 93.236 43.7722 93.4285C43.9382 93.6164 44.1456 93.7514 44.3931 93.8341C44.6406 93.9161 44.8855 93.9316 45.1274 93.8799C45.3755 93.825 45.5966 93.703 45.7902 93.5137C45.9857 93.32 46.1323 93.0681 46.23 92.7588Z" fill="black"/>
<path d="M49.4001 95.2597L51.5379 91.9046L52.32 92.0599L49.6801 96.0002L48.8259 95.8298L48 91.2002L48.7896 91.3575L49.4001 95.2597Z" fill="black"/>
<path d="M56.6282 94.3513C56.6144 94.4827 56.5926 94.621 56.5617 94.7662L53.0529 94.4489C53.0377 94.8607 53.1523 95.1956 53.3959 95.4522C53.6455 95.705 53.9622 95.8483 54.3467 95.8834C54.6621 95.9115 54.9307 95.8671 55.1526 95.7494C55.3805 95.6268 55.549 95.4534 55.6583 95.2281L56.4432 95.2995C56.2852 95.6887 56.0172 95.9935 55.6392 96.2145C55.2619 96.4304 54.8109 96.5149 54.2874 96.4673C53.8713 96.4298 53.5059 96.3071 53.1931 96.1005C52.885 95.894 52.6538 95.6199 52.4998 95.2794C52.3457 94.9333 52.291 94.5459 52.3345 94.1159C52.3779 93.6854 52.5063 93.3167 52.721 93.0094C52.9357 92.7021 53.2142 92.4774 53.5572 92.3347C53.9062 92.1877 54.2947 92.1338 54.722 92.172C55.1381 92.2102 55.4983 92.3291 55.8012 92.5306C56.1047 92.7315 56.326 92.9913 56.4662 93.3105C56.6124 93.6246 56.6664 93.972 56.6282 94.3513ZM55.8894 94.1391C55.9158 93.8756 55.8776 93.6453 55.7735 93.4469C55.6702 93.2435 55.5161 93.0839 55.3126 92.9687C55.1144 92.8486 54.8873 92.7766 54.6305 92.7534C54.2624 92.7203 53.9358 92.8029 53.6514 93.0019C53.3729 93.2016 53.1944 93.497 53.1174 93.8881L55.8894 94.1391Z" fill="black"/>
<path d="M59.6445 92.1606C60.1555 92.1501 60.5724 92.3153 60.8947 92.6548C61.2169 92.9894 61.3837 93.4807 61.3943 94.1282L61.4401 96.8818L60.7505 96.8958L60.7066 94.2535C60.6991 93.7873 60.5881 93.4345 60.3749 93.1944C60.1611 92.9488 59.8728 92.8298 59.5104 92.8375C59.1424 92.8452 58.8508 92.9789 58.6358 93.2392C58.4252 93.4996 58.3242 93.8741 58.3324 94.3627L58.3756 96.9455L57.6778 96.9602L57.6001 92.2887L58.2979 92.274L58.3085 92.939C58.4427 92.6975 58.6258 92.5092 58.859 92.3734C59.0966 92.2376 59.3587 92.1669 59.6445 92.1606Z" fill="black"/>
<path d="M63.7405 92.8513L64.0235 95.3556C64.0468 95.5624 64.1077 95.7053 64.2068 95.7828C64.3052 95.8558 64.4652 95.8801 64.6854 95.8558L65.2125 95.7981L65.2799 96.395L64.6349 96.4661C64.2359 96.5097 63.927 96.452 63.7068 96.2932C63.4873 96.1344 63.3539 95.8481 63.3072 95.4343L63.0242 92.9301L62.466 92.9916L62.3999 92.41L62.9588 92.3486L62.8377 91.279L63.554 91.2002L63.6744 92.2698L64.8 92.1462L64.8654 92.7277L63.7405 92.8513Z" fill="black"/>
<path d="M69.1819 91.2002L70.08 95.4637L69.3565 95.6098L69.2237 94.9798C69.1321 95.225 68.9748 95.4357 68.7517 95.6105C68.5334 95.7787 68.2758 95.8929 67.9791 95.9529C67.6399 96.0214 67.3212 96.0155 67.0225 95.9353C66.7231 95.8498 66.4649 95.6855 66.2479 95.4429C66.0361 95.1989 65.8887 94.88 65.8058 94.4854L65.28 91.9881L65.9956 91.8439L66.5014 94.248C66.5904 94.668 66.767 94.97 67.0325 95.1546C67.2967 95.3339 67.6166 95.3855 67.993 95.3092C68.3793 95.2309 68.6595 95.0528 68.8327 94.7743C69.006 94.4965 69.0458 94.1339 68.9522 93.6877L68.459 91.3463L69.1819 91.2002Z" fill="black"/>
<path d="M71.333 91.3886C71.3749 91.1168 71.4745 90.8818 71.6316 90.6847C71.7933 90.4857 72.0136 90.3376 72.2921 90.2397L72.4801 90.9449L72.3229 91.0003C71.6562 91.234 71.4331 91.7659 71.6546 92.596L72.2496 94.8311L71.6546 95.0397L70.5601 90.9294L71.1551 90.7208L71.333 91.3886Z" fill="black"/>
<path d="M77.453 90.1969C77.5042 90.3319 77.5515 90.4786 77.5938 90.6358L74.4226 92.0333C74.6062 92.4445 74.8642 92.7158 75.1963 92.8487C75.5317 92.9747 75.8728 92.9609 76.2203 92.8079C76.5051 92.6819 76.7151 92.5075 76.8501 92.2846C76.9877 92.0534 77.0504 91.8014 77.0363 91.528L77.7461 91.2151C77.796 91.6734 77.7109 92.1025 77.4907 92.5026C77.2687 92.8979 76.9211 93.2004 76.4482 93.4087C76.0718 93.5748 75.6994 93.6323 75.3307 93.5825C74.9672 93.5299 74.6382 93.3748 74.3426 93.1159C74.0456 92.8522 73.8133 92.4992 73.6449 92.0569C73.4773 91.6152 73.4126 91.1909 73.4504 90.786C73.4881 90.3804 73.6206 90.0246 73.8485 89.7179C74.0782 89.4037 74.3867 89.1621 74.7733 88.9918C75.1496 88.8257 75.5163 88.7675 75.8728 88.8167C76.2299 88.8658 76.5448 89.0126 76.8175 89.2562C77.0933 89.493 77.3051 89.8065 77.453 90.1969ZM76.7163 90.3485C76.6133 90.0779 76.4699 89.8709 76.2863 89.7276C76.1 89.5788 75.892 89.4971 75.661 89.484C75.4331 89.4625 75.2034 89.5033 74.9717 89.6051C74.6389 89.7518 74.3976 89.992 74.2478 90.325C74.1025 90.6565 74.0904 91.0324 74.2107 91.4526L76.7163 90.3485Z" fill="black"/>
<path d="M81.1988 90.9247C80.9237 91.0777 80.6529 91.1674 80.3856 91.194C80.116 91.2161 79.8737 91.1763 79.6587 91.0745C79.4407 90.969 79.267 90.8065 79.137 90.5879L79.7516 90.2453C79.8652 90.421 80.0261 90.5266 80.2356 90.5613C80.4488 90.5942 80.6778 90.5424 80.9219 90.4065C81.1484 90.2801 81.3002 90.1284 81.3774 89.9521C81.4545 89.7751 81.4521 89.6076 81.3701 89.449C81.2857 89.2866 81.1539 89.2057 80.9747 89.2063C80.7931 89.2025 80.5363 89.2436 80.2047 89.3295C79.901 89.4048 79.6453 89.4541 79.4382 89.4762C79.2323 89.492 79.0313 89.461 78.8339 89.3845C78.639 89.3005 78.4799 89.1387 78.356 88.8992C78.2576 88.7096 78.2218 88.5048 78.2491 88.2861C78.2758 88.0668 78.3663 87.8563 78.5206 87.6547C78.6718 87.4481 78.8765 87.273 79.1334 87.1295C79.5305 86.909 79.9046 86.8344 80.2563 86.9064C80.6085 86.9785 80.8867 87.1909 81.0913 87.5429L80.4962 87.874C80.3826 87.687 80.2253 87.5732 80.0249 87.5334C79.8287 87.4911 79.6156 87.534 79.3842 87.663C79.1704 87.7818 79.0253 87.924 78.9475 88.0896C78.8704 88.2545 78.8716 88.4144 78.9512 88.568C79.0143 88.69 79.1036 88.7715 79.2202 88.8113C79.3386 88.8448 79.4674 88.8543 79.6065 88.841C79.7474 88.8208 79.9356 88.7829 80.1713 88.7279C80.4658 88.6565 80.7124 88.6129 80.9116 88.5952C81.1077 88.573 81.299 88.6008 81.4849 88.678C81.675 88.7525 81.831 88.9017 81.9525 89.1254C82.0576 89.3289 82.0977 89.5419 82.0734 89.7656C82.0485 89.9894 81.9604 90.2042 81.8086 90.4109C81.6592 90.6106 81.4557 90.7819 81.1988 90.9247Z" fill="black"/>
</svg>
