<svg width="22" height="20" viewBox="0 0 22 20" fill="none" xmlns="http://www.w3.org/2000/svg">
<path fill-rule="evenodd" clip-rule="evenodd" d="M21.0635 0.885234C21.3556 1.1427 21.4797 1.54158 21.3852 1.91933L17.2186 18.586C17.1276 18.9501 16.8477 19.237 16.4861 19.3372C16.1244 19.4374 15.7368 19.3353 15.4714 19.0699L11.1124 14.7109L8.70801 17.9167C8.47555 18.2266 8.09026 18.382 7.70782 18.3199C7.32539 18.2578 7.00899 17.9886 6.88647 17.6211L4.93958 11.7804L1.15883 9.89005C0.790315 9.70579 0.565032 9.32163 0.584134 8.91006C0.603235 8.49849 0.863132 8.13685 1.24713 7.98751L19.9971 0.695847C20.36 0.554719 20.7713 0.627772 21.0635 0.885234ZM11.7489 12.4011C11.7412 12.3932 11.7334 12.3853 11.7254 12.3776L11.4312 12.0834L14.8613 8.65325C15.268 8.24646 15.268 7.58691 14.8613 7.18012C14.4545 6.77332 13.7949 6.77332 13.3881 7.18012L9.22145 11.3468C8.81465 11.7536 8.81465 12.4131 9.22145 12.8199L9.62429 13.2228L8.2342 15.0762L6.77956 10.7123C6.6922 10.4502 6.5043 10.2335 6.25719 10.11L4.19225 9.07752L18.8758 3.36724L15.6437 16.2959L11.7489 12.4011Z" fill="#114151"/>
</svg>
