<svg width="113" height="112" viewBox="0 0 113 112" fill="none" xmlns="http://www.w3.org/2000/svg">
<g clip-path="url(#clip0_214_3076)">
<path d="M3.04231 34.2163L15.2115 38.0417L14.3423 40.3795L4.34615 37.4042L2.825 42.0797L12.8212 45.2675L11.9519 47.8178L0 43.9924L3.04231 34.2163Z" fill="black"/>
<path d="M17.1673 23.5901C18.2538 24.4402 19.123 25.2903 19.5577 26.1404C19.9923 26.9905 20.2096 28.0531 20.2096 29.1157C20.2096 30.1783 19.775 31.0284 19.123 31.8785C18.4711 32.7286 17.8192 33.5787 16.7327 34.0037C15.6461 34.4288 14.7769 34.6413 13.6904 34.4288C12.6038 34.4288 11.5173 34.0037 10.4307 33.1537C9.3442 32.3036 8.47497 31.4535 8.04035 30.6034C7.60574 29.7533 7.38843 28.6907 7.38843 27.628C7.38843 26.5654 7.82304 25.7153 8.47497 24.6527C9.12689 23.8026 9.77881 23.165 10.8654 22.5275C11.7346 22.1024 12.8211 21.8899 13.9077 22.1024C14.7769 22.3149 15.8634 22.74 17.1673 23.5901ZM15.6461 25.7153C14.9942 25.2903 14.125 24.8652 13.473 24.8652C12.8211 24.6527 12.1692 24.8652 11.7346 25.0777C11.3 25.2903 10.648 25.5028 10.4307 26.1404C9.99612 26.5654 9.99612 27.203 9.77881 27.8406C9.77881 28.4781 9.99612 28.9032 10.2134 29.5407C10.648 30.1783 11.0827 30.6034 11.9519 31.0284C12.8211 31.4535 13.473 31.8785 14.125 31.8785C14.7769 32.091 15.4288 31.8785 15.8634 31.666C16.298 31.4535 16.7327 31.0284 17.1673 30.6034C17.6019 30.1783 17.6019 29.5407 17.8192 28.9032C17.8192 28.2656 17.6019 27.8406 17.3846 27.203C16.95 26.7779 16.298 26.1404 15.6461 25.7153Z" fill="black"/>
<path d="M23.2518 9.98877L31.5095 19.3398L29.5537 21.04L22.8172 13.1766L18.6883 16.3645L25.4249 24.2279L23.4691 25.928L15.2114 16.3645L23.2518 9.98877Z" fill="black"/>
<path d="M34.3345 18.0643L33.4653 16.1516L34.1172 15.939C34.3345 15.7265 34.5518 15.7265 34.7691 15.514C34.9864 15.3015 34.9864 15.0889 34.9864 14.8764C34.9864 14.6639 34.9864 14.4514 34.9864 14.2389V13.8138L26.946 7.65062L29.3364 6.37548L34.7691 10.626L34.3345 4.03772L36.9422 2.9751L37.3768 13.8138C37.3768 14.2389 37.3768 14.8764 37.1595 15.3015C37.1595 15.7265 36.9422 16.1516 36.5076 16.5766C36.2903 17.0017 35.8557 17.4267 35.2037 17.6392L34.3345 18.0643Z" fill="black"/>
<path d="M42.1578 14.2391L41.7231 12.1139H42.1578C42.5924 11.9013 43.027 11.6888 43.2443 11.4763C43.4616 11.2638 43.4616 10.4137 43.4616 9.77609C43.4616 9.13852 43.4616 8.0759 43.2443 7.01328L42.3751 1.48767L50.8501 0L53.2404 12.1139L50.6328 12.5389L48.677 2.33776L45.2001 2.97533L45.852 7.22581C46.0693 8.50095 46.0693 9.77609 46.0693 10.6262C46.0693 11.4763 45.6347 12.3264 45.2001 12.7514C44.7654 13.1765 43.8962 13.6015 43.027 13.814L42.1578 14.2391Z" fill="black"/>
<path d="M58.0211 6.80066L60.8461 7.01318L57.3692 12.3263L54.3269 12.1137L58.0211 6.80066ZM64.3231 12.7513H61.7154L62.5846 2.55018L60.8461 2.33766C60.4115 2.33766 59.9769 2.33766 59.5423 2.55018C59.1077 2.76271 58.8904 2.7627 58.6731 3.18775C58.4558 3.40028 58.4557 3.82532 58.2384 4.25037C58.2384 4.67542 58.2384 5.10047 58.4557 5.31299C58.6731 5.52551 58.8904 5.73804 59.1077 5.95056C59.5423 6.16308 59.7596 6.16308 60.4115 6.16308L63.2365 6.37561L63.0192 8.50084L59.7596 8.28832C58.8904 8.28832 58.0211 8.0758 57.3692 7.65075C56.7173 7.2257 56.2827 6.80066 55.8481 6.16308C55.4134 5.52551 55.4134 4.88794 55.4134 4.03785C55.4134 3.18775 55.6307 2.55018 56.0654 1.91261C56.5 1.27504 56.9346 0.849992 57.8038 0.637468C58.6731 0.424944 59.325 0.212421 60.1942 0.424944L65.1923 0.849992L64.3231 12.7513Z" fill="black"/>
<path d="M65.8442 13.1766L69.7558 1.48779L74.5365 2.97546C75.4058 3.18798 76.275 3.61303 76.7096 4.2506C77.1442 4.88817 77.5789 5.52574 77.7962 6.16331C78.0135 6.80089 77.7962 7.65098 77.5789 8.28855C77.3615 9.13865 76.9269 9.77622 76.275 10.2013C75.8404 10.6263 74.9712 11.0514 74.3192 11.0514C73.45 11.2639 72.7981 11.0514 71.7115 10.8388L68.6692 9.77622L69.5385 7.8635L72.1462 8.7136C72.5808 8.92612 73.0154 8.92612 73.45 8.92612C73.8846 8.92612 74.1019 8.7136 74.3192 8.50108C74.5365 8.28855 74.7539 7.8635 74.9712 7.65098C75.1885 7.22593 75.1885 6.80089 74.9712 6.58836C74.7539 6.37584 74.7539 5.95079 74.5365 5.73827C74.3192 5.52574 73.8846 5.31322 73.45 5.1007L71.7115 4.2506L68.4519 14.0267L65.8442 13.1766Z" fill="black"/>
<path d="M75.8403 16.3642L82.5769 6.16309L84.7499 7.65075L81.9249 11.9012L86.4884 14.8766L89.3134 10.6261L91.4865 12.1137L84.5326 22.5274L82.3596 21.0397L85.1846 16.7893L80.6211 13.8139L77.7961 18.0644L75.8403 16.3642Z" fill="black"/>
<path d="M93.2249 19.1269L95.1807 21.4647C95.8326 22.3148 96.2672 22.9524 96.4845 23.8025C96.7018 24.6526 96.7018 25.2901 96.4845 25.9277C96.2672 26.5653 95.8326 27.2028 95.1807 27.6279C94.5287 28.0529 93.8768 28.478 93.2249 28.478C92.573 28.478 91.7037 28.478 91.0518 28.0529C90.3999 27.6279 89.5307 27.2028 88.8787 26.3527L85.8364 22.7398L95.6153 14.8765L97.3537 17.0017L89.3133 23.5899L90.6172 25.0776C90.8345 25.5027 91.2691 25.7152 91.7037 25.9277C92.1384 26.1402 92.3557 26.1402 92.7903 26.1402C93.2249 26.1402 93.4422 25.9277 93.6595 25.7152C94.0941 25.5027 94.3114 25.0776 94.3114 24.44C94.3114 24.015 94.0941 23.3774 93.6595 22.9524L91.7037 20.6146L93.2249 19.1269ZM104.308 24.8651L94.746 32.941L93.0076 31.0283L102.569 22.9524L104.308 24.8651Z" fill="black"/>
<path d="M95.1807 34.2163L106.698 29.1157L110.175 36.7666L108.219 37.6167L105.829 32.5161L103.004 33.7912L105.177 38.6793L103.221 39.5294L101.048 34.6413L98.223 35.9165L100.613 41.2296L98.6576 42.0797L95.1807 34.2163Z" fill="black"/>
<path d="M100.831 61.6318L113 64.6072L112.348 67.1575L107.35 65.8823L106.046 70.9829L111.044 72.258L110.392 74.8083L98.2231 71.833L98.8751 69.2827L103.873 70.5578L105.177 65.4573L100.179 64.1821L100.831 61.6318Z" fill="black"/>
<path d="M96.4846 74.8085L98.0057 72.4707L106.915 82.2468L105.177 85.2221L92.1384 82.8844L93.6596 80.5466L103.656 82.6718L96.4846 74.8085ZM101.048 77.1462L97.5711 82.8844L95.8327 81.8218L99.0923 76.0836L101.048 77.1462Z" fill="black"/>
<path d="M92.5732 99.4609L83.6636 90.5349L85.6193 88.6222L93.0078 95.848L96.702 92.4476L89.3136 85.2218L91.2693 83.3091L100.179 92.2351L92.5732 99.4609Z" fill="black"/>
<path d="M82.3596 91.5977L88.6615 102.224L84.3154 104.562C83.4462 104.987 82.5769 105.199 81.925 105.199C81.0558 105.199 80.4039 104.987 79.7519 104.774C79.1 104.349 78.6654 103.924 78.2308 103.074C77.7962 102.436 77.5789 101.586 77.5789 100.949C77.5789 100.311 77.7962 99.461 78.2308 98.8235C78.6654 98.1859 79.3173 97.5483 80.1866 97.1233L83.0115 95.6356L84.0981 97.5483L81.7077 98.8235C81.2731 99.036 80.8385 99.461 80.8385 99.6736C80.6212 99.8861 80.6212 100.311 80.6212 100.736C80.6212 101.161 80.8385 101.374 81.0558 101.799C81.2731 102.224 81.4904 102.436 81.925 102.649C82.1423 102.861 82.5769 102.861 83.0115 102.861C83.4462 102.861 83.8808 102.649 84.3154 102.436L85.8365 101.586L80.6212 92.6603L82.3596 91.5977Z" fill="black"/>
<path d="M72.3635 96.9106L75.1884 96.0605L74.7538 109.237L71.4942 110.3L63.6711 99.6735L66.4961 98.8234L72.3635 107.112V96.9106ZM73.8846 101.374L67.3654 103.286L66.7135 101.374L73.2327 99.4609L73.8846 101.374Z" fill="black"/>
<path d="M62.5847 99.4609L63.0193 111.787L58.0213 112C57.152 112 56.2828 112 55.6309 111.787C54.979 111.575 54.5443 111.15 54.1097 110.725C53.6751 110.3 53.6751 109.662 53.6751 109.025C53.6751 108.599 53.6751 108.174 53.8924 107.749C54.1097 107.324 54.327 107.112 54.7617 106.899C55.1963 106.687 55.4136 106.474 55.8482 106.262V106.049C55.4136 106.049 54.979 105.837 54.5443 105.624C54.1097 105.412 53.6751 104.987 53.4578 104.562C53.2405 104.136 53.0232 103.711 53.0232 103.074C53.0232 102.436 53.2405 101.799 53.4578 101.374C53.6751 100.949 54.327 100.524 54.979 100.099C55.6309 99.6735 56.5001 99.6735 57.3693 99.4609H62.5847ZM59.977 101.586H57.804C57.152 101.586 56.5001 101.799 56.2828 102.011C55.8482 102.224 55.8482 102.649 55.8482 103.074C55.8482 103.499 56.0655 103.711 56.0655 103.924C56.2828 104.136 56.5001 104.349 56.7174 104.562C56.9347 104.774 57.3693 104.774 57.804 104.774H59.977V101.586ZM60.1943 106.687H58.2386C57.804 106.687 57.5867 106.687 57.3693 106.899C57.152 107.112 56.9347 107.324 56.7174 107.537C56.5001 107.749 56.5001 107.962 56.5001 108.387C56.5001 108.812 56.7174 109.237 56.9347 109.45C57.152 109.662 57.804 109.875 58.2386 109.875H60.1943V106.687Z" fill="black"/>
<path d="M52.3711 99.8861L51.9364 102.011H51.5018C51.0672 102.011 50.6326 102.011 50.198 102.224C49.7634 102.436 49.5461 102.861 49.3287 103.499C49.1114 104.137 48.6768 104.987 48.4595 106.049L47.1557 111.362L38.6807 109.662L41.2884 97.5483L43.8961 98.1859L41.723 108.175L45.1999 108.812L46.2864 104.562C46.721 103.286 47.1557 102.224 47.5903 101.374C48.0249 100.524 48.6768 100.099 49.3287 99.6736C49.9807 99.4611 50.8499 99.2485 51.7191 99.461L52.3711 99.8861Z" fill="black"/>
<path d="M40.2018 96.9107L34.5518 107.962L26.946 104.349L28.0326 102.436L33.248 104.987L34.5518 102.436L29.5537 99.8861L30.6403 97.9734L35.421 100.311L36.7249 97.7608L31.5095 95.2106L32.596 93.2979L40.2018 96.9107Z" fill="black"/>
<path d="M31.2922 92.6601L23.0345 102.011L21.0788 100.311L24.5557 96.4856L20.4268 93.0852L16.9499 96.9106L14.9941 95.2104L23.2518 85.8594L25.2076 87.5596L21.7307 91.385L25.8595 94.7854L29.3364 90.9599L31.2922 92.6601Z" fill="black"/>
<path d="M11.7345 91.5976L10.2133 89.4724L16.7326 85.2219H7.17103L5.86719 83.3092L16.298 76.2959L17.8191 78.4211L11.2999 82.6716H20.8614L22.1653 84.5843L11.7345 91.5976Z" fill="black"/>
<path d="M12.3865 65.8823L13.2557 68.4326L3.4769 71.833L4.12882 73.5332C4.12882 73.7457 4.34613 74.1707 4.56344 74.3833C4.78075 74.5958 4.99805 74.8083 5.43267 74.8083C5.86729 74.8083 6.08459 74.8083 6.51921 74.5958C6.95382 74.3833 7.17113 74.1707 7.38844 73.9582C7.60575 73.7457 7.60575 73.3207 7.82305 73.1081C8.04036 72.8956 7.82305 72.258 7.60575 71.833L6.73652 69.0702L8.69229 68.6451L9.77882 71.6205C9.99613 72.4706 10.2134 73.3207 10.2134 74.1708C10.2134 74.8083 9.77882 75.4459 9.34421 76.0835C8.90959 76.5085 8.25767 76.9336 7.38844 77.3586C6.51921 77.5711 5.86729 77.7837 5.21536 77.5711C4.56344 77.3586 3.91152 77.1461 3.25959 76.5085C2.60767 75.8709 2.39036 75.2334 1.95575 74.3833L0.217285 69.7077L12.3865 65.8823ZM9.1269 73.9582L8.25767 71.1954L14.7769 72.258L15.6461 75.0208L9.1269 73.9582Z" fill="black"/>
<path d="M62.8721 69.6891L61.6741 68.5193L56.9247 73.1486V36.5039H55.2254V73.1486L50.4845 68.511L49.2781 69.6891L56.0751 76.3261L62.8721 69.6891Z" fill="black"/>
</g>
<defs>
<clipPath id="clip0_214_3076">
<rect width="113" height="112" fill="white"/>
</clipPath>
</defs>
</svg>
