<svg width="22" height="22" viewBox="0 0 22 22" fill="none" xmlns="http://www.w3.org/2000/svg">
<path fill-rule="evenodd" clip-rule="evenodd" d="M16.4156 4.65939C14.8714 3.34231 12.8997 2.63403 10.8704 2.66747C8.84108 2.70091 6.89375 3.47377 5.39382 4.84101C3.89389 6.20825 2.94448 8.07588 2.72376 10.0934C2.50304 12.1109 3.02619 14.1397 4.19502 15.7989C4.40424 16.0959 4.44361 16.4804 4.29892 16.8136L3.35353 18.9909L6.70234 18.3941C6.92008 18.3553 7.14452 18.3868 7.34316 18.4841C9.16597 19.3765 11.2518 19.5731 13.2093 19.0369C15.1667 18.5007 16.8612 17.2686 17.9747 15.5718C19.0883 13.875 19.5443 11.8301 19.2572 9.82096C18.9701 7.8118 17.9597 5.97647 16.4156 4.65939ZM10.836 0.584423C13.3727 0.542624 15.8373 1.42797 17.7675 3.07432C19.6977 4.72067 20.9608 7.01484 21.3196 9.52629C21.6784 12.0377 21.1084 14.5938 19.7165 16.7148C18.3246 18.8358 16.2065 20.376 13.7597 21.0462C11.425 21.6858 8.94428 21.4914 6.74246 20.5031L1.80745 21.3826C1.42961 21.4499 1.04536 21.3041 0.807401 21.0029C0.569447 20.7018 0.516346 20.2943 0.669204 19.9422L2.16291 16.5022C0.933921 14.5268 0.398533 12.1909 0.652785 9.86684C0.928685 7.34493 2.11545 5.01039 3.99036 3.30135C5.86527 1.5923 8.29943 0.626222 10.836 0.584423Z" fill="#1B7E1E"/>
<path fill-rule="evenodd" clip-rule="evenodd" d="M7.29065 6.75208C7.58368 6.45905 7.98111 6.29443 8.39551 6.29443C8.80991 6.29443 9.20734 6.45905 9.50036 6.75208C9.79339 7.04511 9.95801 7.44254 9.95801 7.85693V8.8986C9.95801 9.313 9.79339 9.71043 9.50036 10.0035C9.39499 10.1088 9.27613 10.1976 9.14782 10.2681C9.35244 10.856 9.68817 11.3963 10.1367 11.8449C10.5853 12.2934 11.1256 12.6292 11.7135 12.8338C11.784 12.7055 11.8728 12.5866 11.9782 12.4812C12.2712 12.1882 12.6686 12.0236 13.083 12.0236H14.1247C14.5391 12.0236 14.9365 12.1882 15.2295 12.4812C15.5226 12.7743 15.6872 13.1717 15.6872 13.5861C15.6872 14.0005 15.5226 14.3979 15.2295 14.691C14.9365 14.984 14.5391 15.1486 14.1247 15.1486H13.083C11.4254 15.1486 9.83569 14.4901 8.66359 13.318C7.49149 12.1459 6.83301 10.5562 6.83301 8.8986V7.85693C6.83301 7.44254 6.99763 7.04511 7.29065 6.75208Z" fill="#1B7E1E"/>
</svg>
